<?xml version="1.0" encoding="iso-8859-1"?>
<!-- Generator: Adobe Illustrator 19.0.0, SVG Export Plug-In . SVG Version: 6.00 Build 0)  -->
<svg xmlns="http://www.w3.org/2000/svg" xmlns:xlink="http://www.w3.org/1999/xlink" version="1.1" id="Capa_1" x="0px" y="0px" viewBox="0 0 465 465" style="enable-background:new 0 0 465 465;" xml:space="preserve" width="512" height="512">
<g>
	<path style="fill:#FFFFFF;" d="M360.81,65.56v40.68c-7.4,8.75-18.45,14.33-30.8,14.33c-13.35,0-25.14-6.51-32.5-16.49   c-7.35,9.98-19.17,16.49-32.51,16.49s-25.14-6.51-32.49-16.49c-7.37,9.98-19.17,16.49-32.51,16.49s-25.14-6.51-32.5-16.49   c-7.35,9.98-19.17,16.49-32.51,16.49c-12.36,0-23.39-5.58-30.8-14.34V65.56H360.81z"/>
	<path style="fill:#FFF8ED;" d="M360.81,65.56H104.19c0-32.07,25.99-58.06,58.06-58.06h140.5C334.82,7.5,360.81,33.49,360.81,65.56z   "/>
	<path style="fill:#6ECDFB;" d="M330.01,120.57c-13.35,0-25.14-6.51-32.5-16.49c-7.35,9.98-19.17,16.49-32.51,16.49   s-25.14-6.51-32.49-16.49c-7.37,9.98-19.17,16.49-32.51,16.49s-25.14-6.51-32.5-16.49c-7.35,9.98-19.17,16.49-32.51,16.49   c-12.36,0-23.39-5.58-30.8-14.34v146.4c0,30.73,23.87,55.88,54.08,57.92c1.32,0.09,147.14,0.09,148.46,0   c30.21-2.04,54.08-27.19,54.08-57.92V106.24C353.41,114.99,342.36,120.57,330.01,120.57z"/>
	<path style="fill:#1895C2;" d="M306.73,310.55c-1.32,0.09-147.14,0.09-148.46,0c-30.21,2.04-54.08,27.2-54.08,57.92h256.62   C360.81,337.75,336.94,312.59,306.73,310.55z"/>
	<path style="fill:#CFC8AB;" d="M84.19,368.47l7.34,73.42c0.85,8.59,8.61,15.61,17.24,15.61h247.46c8.63,0,16.39-7.02,17.24-15.61   l7.34-73.42H84.19z"/>
	<path style="fill:#591200;" d="M390.811,360.973h-22.942c-2.504-21.878-15.813-40.512-34.45-50.42   c18.637-9.907,31.945-28.542,34.45-50.42h3.693c4.142,0,7.5-3.358,7.5-7.5s-3.358-7.5-7.5-7.5h-3.251v-78.538h3.251   c4.142,0,7.5-3.358,7.5-7.5s-3.358-7.5-7.5-7.5h-3.251V73.058h3.251c4.142,0,7.5-3.358,7.5-7.5s-3.358-7.5-7.5-7.5h-3.693   C364.134,25.43,336.365,0,302.753,0H162.247c-33.612,0-61.381,25.43-65.116,58.058h-3.693c-4.142,0-7.5,3.358-7.5,7.5   s3.358,7.5,7.5,7.5h3.251v78.538h-2.283c-4.142,0-7.5,3.358-7.5,7.5s3.358,7.5,7.5,7.5h2.283v78.538h-2.283   c-4.142,0-7.5,3.358-7.5,7.5s3.358,7.5,7.5,7.5h2.725c2.504,21.878,15.813,40.512,34.45,50.42   c-18.637,9.907-31.946,28.542-34.45,50.42h-12.89c-0.02,0-0.04,0-0.06,0h-9.991c-4.142,0-7.5,3.358-7.5,7.5s3.358,7.5,7.5,7.5   h3.212l6.662,66.664C85.296,454.968,96.38,465,108.772,465h247.456c12.392,0,23.476-10.032,24.708-22.363l6.662-66.664h3.212   c4.142,0,7.5-3.358,7.5-7.5S394.953,360.973,390.811,360.973z M111.689,73.058h22.5c4.142,0,7.5-3.358,7.5-7.5s-3.358-7.5-7.5-7.5   h-21.94C115.883,33.725,136.917,15,162.247,15h140.506c25.329,0,46.363,18.725,49.998,43.058H164.189c-4.142,0-7.5,3.358-7.5,7.5   s3.358,7.5,7.5,7.5h189.122v78.538H111.689V73.058z M112.248,260.134h188.563c4.142,0,7.5-3.358,7.5-7.5s-3.358-7.5-7.5-7.5   H111.689v-78.538h241.622v78.538h-22.5c-4.142,0-7.5,3.358-7.5,7.5s3.358,7.5,7.5,7.5h21.94   c-3.451,23.102-22.589,41.133-46.193,42.9c-1.26-0.073-2.527-0.119-3.806-0.119c-0.692,0-1.359,0.101-1.995,0.277H164.243   c-0.636-0.176-1.303-0.277-1.995-0.277c-1.278,0-2.545,0.046-3.806,0.119C134.838,301.267,115.699,283.236,112.248,260.134z    M158.441,318.073c1.26,0.073,2.527,0.119,3.806,0.119h140.506c1.278,0,2.545-0.046,3.806-0.119   c23.604,1.767,42.742,19.798,46.193,42.9H112.248C115.699,337.871,134.838,319.84,158.441,318.073z M366.011,441.146   c-0.471,4.717-5.042,8.854-9.783,8.854H108.772c-4.74,0-9.312-4.137-9.783-8.854l-6.513-65.173h280.048L366.011,441.146z"/>
	<path style="fill:#591200;" d="M330.008,113.069c-10.518,0-20.163-4.897-26.461-13.437c-1.414-1.917-3.654-3.048-6.036-3.048   c-2.385,0.001-4.625,1.134-6.039,3.052c-6.196,8.411-16.091,13.433-26.47,13.433c-10.518,0-20.163-4.897-26.461-13.437   c-1.413-1.916-3.652-3.047-6.033-3.048c-2.383,0-4.621,1.129-6.035,3.043c-6.311,8.542-15.961,13.441-26.476,13.441   c-10.518,0-20.163-4.897-26.462-13.437c-1.414-1.917-3.654-3.048-6.036-3.048c-2.385,0.001-4.626,1.134-6.039,3.052   c-6.195,8.411-16.09,13.433-26.469,13.433c-4.142,0-7.5,3.358-7.5,7.5s3.358,7.5,7.5,7.5c12.092,0,23.727-4.668,32.511-12.79   c8.789,8.122,20.418,12.79,32.495,12.79c12.076,0,23.709-4.67,32.505-12.794c8.789,8.125,20.42,12.794,32.5,12.794   c12.092,0,23.727-4.667,32.511-12.79c8.789,8.122,20.417,12.79,32.495,12.79c4.142,0,7.5-3.358,7.5-7.5   S334.15,113.069,330.008,113.069z"/>
</g>















</svg>
