<?xml version="1.0" encoding="iso-8859-1"?>
<!-- Generator: Adobe Illustrator 19.0.0, SVG Export Plug-In . SVG Version: 6.00 Build 0)  -->
<svg version="1.1" id="Layer_1" xmlns="http://www.w3.org/2000/svg" xmlns:xlink="http://www.w3.org/1999/xlink" x="0px" y="0px"
	 viewBox="0 0 512.213 512.213" style="enable-background:new 0 0 512.213 512.213;" xml:space="preserve">
<g transform="translate(1)">
	<path style="fill:#FFE100;" d="M325.667,281.813H184.013c-26.453,0-48.64-22.187-48.64-48.64V111.147h238.933v122.027
		C374.307,259.627,352.12,281.813,325.667,281.813"/>
	<path style="fill:#FFA800;" d="M348.707,111.147v122.027c0,26.453-22.187,48.64-48.64,48.64h25.6
		c26.453,0,48.64-22.187,48.64-48.64V111.147H348.707z"/>
	<path style="fill:#FFFFFF;" d="M160.973,111.147v122.027c0,26.453,22.187,48.64,48.64,48.64h-25.6
		c-26.453,0-48.64-22.187-48.64-48.64V111.147H160.973z"/>
	<polygon style="fill:#FFE100;" points="391.373,111.147 118.307,111.147 254.84,8.747 	"/>
	<polygon style="fill:#FFA800;" points="254.84,8.747 237.773,21.547 357.24,111.147 391.373,111.147 	"/>
	<polygon style="fill:#FFFFFF;" points="254.84,8.747 271.907,21.547 152.44,111.147 118.307,111.147 	"/>
	<g>
		<polygon style="fill:#FFE100;" points="135.373,503.68 186.573,503.68 186.573,435.413 135.373,435.413 		"/>
		<polygon style="fill:#FFE100;" points="323.107,503.68 374.307,503.68 374.307,435.413 323.107,435.413 		"/>
		<path style="fill:#FFE100;" d="M357.24,443.947c-5.12,0-8.533-3.413-8.533-8.533V290.347H178.04v145.067
			c0,5.12-3.413,8.533-8.533,8.533c-5.12,0-8.533-3.413-8.533-8.533v-153.6c0-5.12,3.413-8.533,8.533-8.533H357.24
			c5.12,0,8.533,3.413,8.533,8.533v153.6C365.773,440.533,362.36,443.947,357.24,443.947z"/>
		<path style="fill:#FFE100;" d="M169.507,401.28c-2.56,0-5.973-1.707-7.68-4.267c-1.707-4.267-0.853-9.387,3.413-11.947
			l187.733-110.933c4.267-2.56,9.387-0.853,11.947,3.413c2.56,4.267,0.853,9.387-3.413,11.947L173.773,400.427
			C172.067,401.28,171.213,401.28,169.507,401.28z"/>
		<path style="fill:#FFE100;" d="M357.24,401.28c-1.707,0-2.56,0-4.267-0.853L165.24,289.493c-4.267-2.56-5.12-7.68-3.413-11.947
			c2.56-4.267,7.68-5.12,11.947-3.413l187.733,110.933c4.267,2.56,5.12,7.68,3.413,11.947
			C363.213,399.573,359.8,401.28,357.24,401.28z"/>
	</g>
	<path d="M186.573,512.213h-51.2c-5.12,0-8.533-3.413-8.533-8.533v-68.267c0-5.12,3.413-8.533,8.533-8.533h51.2
		c5.12,0,8.533,3.413,8.533,8.533v68.267C195.107,508.8,191.693,512.213,186.573,512.213z M143.907,495.147h34.133v-51.2h-34.133
		V495.147z"/>
	<path d="M374.307,512.213h-51.2c-5.12,0-8.533-3.413-8.533-8.533v-68.267c0-5.12,3.413-8.533,8.533-8.533h51.2
		c5.12,0,8.533,3.413,8.533,8.533v68.267C382.84,508.8,379.427,512.213,374.307,512.213z M331.64,495.147h34.133v-51.2H331.64
		V495.147z"/>
	<polygon points="357.24,435.413 340.173,435.413 340.173,290.347 169.507,290.347 169.507,435.413 152.44,435.413 152.44,273.28 
		357.24,273.28 	"/>
	
		<rect x="246.29" y="228.043" transform="matrix(-0.5086 -0.861 0.861 -0.5086 94.0382 728.2082)" width="17.067" height="218.453"/>
	
		<rect x="145.615" y="328.728" transform="matrix(-0.8609 -0.5087 0.5087 -0.8609 302.665 757.2606)" width="218.445" height="17.066"/>
	<path d="M325.667,290.347H184.013c-31.573,0-57.173-25.6-57.173-57.173V111.147c0-5.12,3.413-8.533,8.533-8.533h238.933
		c5.12,0,8.533,3.413,8.533,8.533v122.027C382.84,264.747,357.24,290.347,325.667,290.347z M143.907,119.68v113.493
		c0,22.187,17.92,40.107,40.107,40.107h141.653c22.187,0,40.107-17.92,40.107-40.107V119.68H143.907z"/>
	<path d="M391.373,119.68L391.373,119.68H118.307c-3.413,0-6.827-2.56-7.68-5.973s0-7.68,2.56-9.387L249.72,1.92
		c3.413-2.56,6.827-2.56,10.24,0l135.68,101.547c2.56,1.707,4.267,4.267,4.267,7.68C399.907,116.267,396.493,119.68,391.373,119.68z
		 M143.907,102.613h221.867L254.84,18.987L143.907,102.613z"/>
</g>
<g>
</g>
<g>
</g>
<g>
</g>
<g>
</g>
<g>
</g>
<g>
</g>
<g>
</g>
<g>
</g>
<g>
</g>
<g>
</g>
<g>
</g>
<g>
</g>
<g>
</g>
<g>
</g>
<g>
</g>
</svg>
