<?xml version="1.0" encoding="iso-8859-1"?>
<!-- Generator: Adobe Illustrator 19.1.0, SVG Export Plug-In . SVG Version: 6.00 Build 0)  -->
<svg version="1.1" id="Capa_1" xmlns="http://www.w3.org/2000/svg" xmlns:xlink="http://www.w3.org/1999/xlink" x="0px" y="0px"
	 viewBox="0 0 439.801 439.801" style="enable-background:new 0 0 439.801 439.801;" xml:space="preserve">
<g>
	<path style="fill:#C69C6D;" d="M143.21,74.784c-3.6,2.497-7.678,3.917-12,3.917c-4.322,0-8.4-1.419-12-3.917v5.175l12,23.487
		l12-23.487V74.784z"/>
	<path style="fill:#BADFE8;" d="M133.712,109.539v125.309h32.463v-94.98c0-0.549,0.121-0.773,0.139-0.822l14.447-41.473
		c-3.176-2.841-7.572-5.424-13.677-7.007c-0.062-0.016-7.48-2.57-7.48-2.57l-0.727,16.754c-0.036,0.83-0.482,1.588-1.191,2.023
		c-0.399,0.245-0.852,0.369-1.307,0.369c-0.353,0-0.706-0.075-1.036-0.225l-16.46-7.498L133.712,109.539z"/>
	<path style="fill:#D8B4A4;" d="M219.91,205.746c-2.635,0-5.179-0.487-7.578-1.384c-0.153,0.562-0.497,1.053-0.974,1.388
		c1.201,1.842,4.449,3.471,8.516,3.471c0.013,0,0.023,0.001,0.036,0c0.012,0,0.025,0,0.036,0c4.067,0,7.315-1.629,8.516-3.471
		c-0.477-0.335-0.82-0.825-0.974-1.388C225.089,205.259,222.545,205.746,219.91,205.746z"/>
	<polygon style="fill:#BADFE8;" points="141.161,94.961 154.043,100.829 154.672,86.295 146.948,83.633 	"/>
	<path style="fill:#BADFE8;" d="M185.275,210.898c2.382-1.943,5.394-3.588,9.203-4.477l12.947-4.493v-0.103
		c-8.083-5.442-13.577-15.992-13.577-28.091c0-10.447,1.649-15.058,3.359-18.974l-8.275-42.201
		c-0.017-0.086-0.621-5.523-4.356-10.741l-13.317,38.23L185.275,210.898z"/>
	<path style="fill:#754C24;" d="M115.305,20.062c0-1.381,1.119-2.5,2.5-2.5h0.001h0.001c1.381,0,2.5,1.119,2.5,2.5
		c0,1.96,4.247,4.807,10.903,4.807c6.656,0,10.903-2.847,10.903-4.807c0-1.381,1.119-2.5,2.5-2.5h0.001h0.001
		c1.381,0,2.5,1.119,2.5,2.5c0,6.191,1.807,9.856,5.369,10.953V18.237c0.005-0.243,0.05-4.203-3.381-7.709
		C145.514,6.86,139.493,5,131.21,5c-8.283,0-14.304,1.86-17.894,5.528c-3.431,3.506-3.386,7.466-3.382,7.633v12.853
		C113.498,29.919,115.305,26.253,115.305,20.062z"/>
	<polygon style="fill:#BADFE8;" points="121.259,94.961 115.472,83.633 107.748,86.295 108.377,100.829 	"/>
	<path style="fill:#C69C6D;" d="M52.089,242.898c-0.233,1.796,0.248,3.581,1.355,5.021c1.108,1.439,2.709,2.36,4.51,2.594
		c1.798,0.233,3.586-0.247,5.025-1.355c1.439-1.108,2.361-2.71,2.595-4.511c0.01-0.069,0.021-0.138,0.036-0.206l1.572-7.278H52.845
		L52.089,242.898z"/>
	<path style="fill:#C69C6D;" d="M131.21,73.7c8.071,0,12.737-6.064,12.801-6.123c5.143-5.542,8.474-14.33,8.474-24.208v-7.216
		c-4.819-0.817-8.115-4.066-9.55-9.346c-2.863,1.9-6.982,3.061-11.725,3.061c-4.742,0-8.861-1.161-11.725-3.061
		c-1.435,5.28-4.73,8.529-9.55,9.346v7.216c0,9.879,3.331,18.667,8.474,24.208C118.473,67.636,123.139,73.7,131.21,73.7z
		 M140.209,44.2c0.931-0.93,2.601-0.93,3.53,0c0.47,0.46,0.74,1.1,0.74,1.76c0,0.66-0.27,1.31-0.74,1.77
		c-0.46,0.47-1.11,0.73-1.76,0.73c-0.66,0-1.311-0.26-1.77-0.73c-0.47-0.46-0.74-1.11-0.74-1.77
		C139.469,45.3,139.739,44.66,140.209,44.2z M124.732,58.093c1.175,0,2.161,0.811,2.429,1.903c0.486,0.3,1.872,0.819,4.049,0.819
		c2.177,0,3.562-0.52,4.049-0.819c0.268-1.093,1.254-1.903,2.429-1.903c1.381,0,2.5,1.119,2.5,2.5c0,3.075-3.691,5.223-8.978,5.223
		c-5.286,0-8.978-2.147-8.978-5.223C122.232,59.212,123.352,58.093,124.732,58.093z M118.68,44.19c0.92-0.92,2.6-0.93,3.529,0
		c0.471,0.47,0.73,1.12,0.73,1.77c0,0.66-0.26,1.31-0.73,1.77c-0.46,0.47-1.109,0.73-1.77,0.73c-0.65,0-1.3-0.26-1.76-0.73
		c-0.471-0.46-0.74-1.11-0.74-1.77C117.939,45.31,118.209,44.66,118.68,44.19z"/>
	<path style="fill:#E0BC4B;" d="M285.391,101.245l16.316-3.916V84.748c-6.033-5.448-10.006-14.661-10.006-25.088v-6.889h0.003
		c-0.001-1.177,0.83-2.226,2.027-2.456c0.182-0.035,18.173-3.632,18.173-15.186V20.041c-4.467,0.26-14.197,1.575-20.778,7.911
		c-4.554,4.384-6.862,10.5-6.862,18.177c0,0.403-0.098,0.801-0.284,1.158c-0.22,0.421-21.268,41.252-5.907,56.658
		C280.251,102.818,282.675,101.883,285.391,101.245z"/>
	<path style="fill:#E5CBBD;" d="M296.701,54.749v4.912c0,9.308,3.544,17.452,8.805,21.839c0.194,0.119,3.515,3.439,8.898,3.439
		c5.384,0,8.704-3.321,8.898-3.439c5.261-4.387,8.805-12.531,8.805-21.839v-4.912c-4.099-1.09-13.267-4.208-17.703-11.094
		C309.968,50.54,300.8,53.658,296.701,54.749z M303.959,63.2c-0.66,0-1.3-0.27-1.77-0.74c-0.46-0.46-0.73-1.1-0.73-1.76
		c0-0.66,0.271-1.3,0.73-1.77c0.92-0.93,2.6-0.93,3.54,0c0.46,0.46,0.729,1.11,0.729,1.77c0,0.66-0.27,1.3-0.729,1.76
		C305.259,62.93,304.619,63.2,303.959,63.2z M323.079,58.93c0.93-0.93,2.61-0.93,3.54,0c0.46,0.47,0.73,1.11,0.73,1.77
		c0,0.66-0.271,1.3-0.73,1.77c-0.47,0.46-1.11,0.73-1.77,0.73c-0.66,0-1.301-0.27-1.771-0.73c-0.46-0.47-0.729-1.11-0.729-1.77
		C322.35,60.04,322.619,59.39,323.079,58.93z M318.707,72.163c0.253-1.112,1.248-1.943,2.438-1.943c1.381,0,2.5,1.119,2.5,2.5
		c0,3.14-3.8,5.333-9.24,5.333s-9.24-2.193-9.24-5.333c0-1.381,1.119-2.5,2.5-2.5c1.19,0,2.185,0.831,2.438,1.943
		c0.493,0.32,1.96,0.89,4.303,0.89C316.747,73.053,318.214,72.482,318.707,72.163z"/>
	<path style="fill:#E5CBBD;" d="M314.404,89.938c-2.701,0-5.292-0.635-7.697-1.794v11.157c0,1.156-0.793,2.161-1.917,2.431
		l-11.385,2.732c1.271,6.898,9.375,11.412,20.999,11.412c11.624,0,19.728-4.514,20.999-11.413l-11.385-2.731
		c-1.124-0.27-1.917-1.275-1.917-2.431V88.144C319.696,89.303,317.105,89.938,314.404,89.938z"/>
	<path style="fill:#E0BC4B;" d="M335.074,50.315c1.199,0.229,2.031,1.278,2.03,2.456h0.003v6.889
		c0,10.427-3.973,19.64-10.006,25.088V97.33l16.327,3.918c2.713,0.638,5.134,1.57,7.309,2.696
		c15.357-15.406-5.688-56.235-5.908-56.656c-0.186-0.357-0.284-0.755-0.284-1.158c0-7.677-2.309-13.792-6.862-18.177
		c-6.579-6.335-16.311-7.649-20.778-7.91V35.13C316.904,46.726,334.893,50.281,335.074,50.315z"/>
	<path style="fill:#E5CBBD;" d="M259.803,216.96l19.09-62.699c-0.757-1.205-1.421-2.556-1.946-4.07l-14.906-6.772l-14.122,63.757
		C253.866,209.285,257.564,213.321,259.803,216.96z"/>
	<path style="fill:#B79870;" d="M209.979,159.359c0.734-1.17,2.277-1.521,3.446-0.788c0.33,0.207,0.588,0.483,0.781,0.792
		l0.007-0.004l5.152,8.206h21.31c-1.486-14.744-8.586-22.49-20.765-22.49c-9.649,0-20.764,8.648-20.764,22.49h5.68L209.979,159.359z
		"/>
	<path style="fill:#D8B4A4;" d="M219.91,200.746c11.614,0,21.062-12.117,21.062-27.012c0-0.396-0.008-0.781-0.015-1.169h-22.976
		c-0.86,0-1.66-0.442-2.117-1.171l-3.77-6.004l-3.77,6.004c-0.457,0.729-1.257,1.171-2.117,1.171h-7.346
		c-0.007,0.388-0.015,0.773-0.015,1.169C198.849,188.629,208.297,200.746,219.91,200.746z M227.93,176.56
		c0.92-0.93,2.6-0.93,3.529,0c0.471,0.46,0.73,1.11,0.73,1.77c0,0.65-0.26,1.3-0.73,1.76c-0.46,0.47-1.109,0.73-1.77,0.73
		c-0.65,0-1.3-0.26-1.76-0.73c-0.471-0.46-0.74-1.11-0.74-1.76C227.189,177.67,227.459,177.02,227.93,176.56z M214.023,188.115
		c1.088,0,2.013,0.694,2.357,1.665c0.508,0.25,1.723,0.605,3.501,0.605c0.009,0,0.019,0,0.028,0c1.793-0.004,3.017-0.366,3.526-0.62
		c0.341-0.973,1.266-1.671,2.355-1.674c0.002,0,0.004,0,0.006,0c1.378,0,2.497,1.115,2.5,2.494c0.002,0.992-0.425,2.825-3.312,3.951
		c-1.392,0.544-3.191,0.845-5.065,0.849c-0.013,0-0.027,0-0.041,0c-4.993,0.001-8.349-1.912-8.356-4.764
		c-0.003-1.381,1.113-2.502,2.494-2.506C214.02,188.115,214.022,188.115,214.023,188.115z M208.359,176.6c0.93-0.93,2.6-0.93,3.54,0
		c0.46,0.47,0.73,1.11,0.73,1.77c0,0.65-0.27,1.3-0.73,1.76c-0.47,0.47-1.11,0.74-1.77,0.74c-0.66,0-1.31-0.27-1.77-0.74
		c-0.47-0.46-0.73-1.1-0.73-1.76C207.629,177.71,207.89,177.06,208.359,176.6z"/>
	<path style="fill:#C69C6D;" d="M267.895,245.87c-0.122,0.22-0.278,0.42-0.464,0.597l0.279,1.271
		C267.771,247.116,267.831,246.494,267.895,245.87z"/>
	<polygon style="fill:#BADFE8;" points="52.978,232.164 68.795,232.164 73.477,223.561 52.349,223.561 	"/>
	<path style="fill:#F4A04D;" d="M257.859,224.695c-0.278-0.944-0.88-2.664-1.993-4.588l-8.01,23.46l2.36,7.357l12.597-7.452
		C262.814,243.472,257.87,224.735,257.859,224.695z"/>
	<path style="fill:#D8B4A4;" d="M262.917,249.219l-9.73,5.757l16.584,54.767c0.018,0.06,0.034,0.12,0.048,0.18
		c0.183,0.821,0.676,1.522,1.387,1.973c0.712,0.452,1.559,0.598,2.377,0.415c0.822-0.184,1.523-0.677,1.975-1.388
		c0.451-0.711,0.599-1.555,0.415-2.377L262.917,249.219z"/>
	<path style="fill:#998675;" d="M293.176,434.801h18.729v-14.648H300.99C300.249,423.368,298.259,429.493,293.176,434.801z"/>
	<path style="fill:#F4A04D;" d="M244.095,211.265c-0.09-0.02-0.178-0.046-0.265-0.076l-10.641-3.692
		c-1.902,3.909-7.113,6.724-13.243,6.724c-0.011,0-0.021,0-0.031,0c-0.003,0-0.007,0-0.01,0c-0.01,0-0.021,0-0.031,0
		c-6.13,0-11.341-2.815-13.243-6.724l-10.641,3.692c-0.087,0.03-0.175,0.056-0.265,0.076c-3.444,0.784-6.073,2.365-8.072,4.197
		l9.311,27.273c0.014,0.039,0.096,0.215,0.096,0.413c0,0.069,1.152,59.956,1.152,59.956h43.396l1.114-59.607
		c0-0.483,0.12-0.721,0.134-0.761l9.311-27.273C250.169,213.63,247.54,212.048,244.095,211.265z"/>
	<path style="fill:#5576A5;" d="M198.007,308.103l-5.533,52.011h21.701l3.245-37.104c0.001-0.011,0.105-2.27,2.493-2.27
		c2.389,0,2.486,2.257,2.487,2.268l3.268,37.105h21.678l-5.533-52.011H198.007z"/>
	<polygon style="fill:#D8B4A4;" points="227.879,365.113 227.859,423.149 238.777,423.149 241.786,365.113 	"/>
	<path style="fill:#E5CBBD;" d="M316.904,415.152h10.904c9.764-53.662,11.222-91.97,11.438-101.833h-22.343V415.152z"/>
	<path style="fill:#E5CBBD;" d="M366.769,143.419l-14.906,6.772c-0.527,1.519-1.193,2.873-1.953,4.08l26.107,85.712
		c0.018,0.059,0.033,0.118,0.047,0.178c0.72,3.186,3.896,5.191,7.083,4.475c1.543-0.349,2.858-1.277,3.704-2.615
		c0.845-1.337,1.118-2.924,0.77-4.466L366.769,143.419z"/>
	<path style="fill:#BADFE8;" d="M73.487,112.56L52.696,218.561h22.933l15.532-78.512l-13.317-38.23
		C74.107,107.039,73.503,112.48,73.487,112.56z"/>
	<path style="fill:#998675;" d="M316.904,420.152v14.648h18.728c-5.083-5.308-7.073-11.433-7.814-14.648H316.904z"/>
	<path style="fill:#A881C9;" d="M348.071,129.451c4.085,3.703,5.382,9.424,5.004,14.698l12.589-5.72l-2.327-10.506
		c-0.165-0.712-4.308-17.873-21.064-21.811l-1.974-0.474c-1.806,9.233-11.756,15.237-25.895,15.237
		c-14.14,0-24.089-6.004-25.896-15.237l-1.963,0.471c-16.844,3.958-21.036,21.647-21.076,21.825l-2.324,10.495l12.588,5.719
		c-0.378-5.274,0.919-10.996,5.004-14.698c1.023-0.929,2.603-0.85,3.531,0.173c0.927,1.023,0.85,2.604-0.174,3.531
		c-3.871,3.51-4.157,10.386-2.439,15.364c1.341,3.884,3.714,6.406,6.192,6.583c1.252,0.09,2.243,1.094,2.317,2.347l0.853,14.491
		c0.032,0.552-0.119,1.1-0.432,1.557c-9.36,13.705-16.011,45.091-19.239,90.772c0,0,9.614,43.764,9.647,44.05h78.275
		c-0.177-16.261-2.023-106.967-21.05-134.822c-0.312-0.457-0.464-1.005-0.432-1.557l0.854-14.491
		c0.074-1.253,1.065-2.257,2.317-2.347c2.479-0.177,4.852-2.7,6.192-6.583c1.719-4.978,1.433-11.854-2.438-15.364
		c-1.024-0.927-1.101-2.508-0.174-3.531C345.468,128.602,347.048,128.522,348.071,129.451z"/>
	<path style="fill:#999999;" d="M227.857,428.149l-0.002,6.651h20.025c-0.223-1.541-0.768-3.519-2.077-4.902
		c-1.11-1.173-2.634-1.745-4.657-1.749H227.857z"/>
	<path style="fill:#E5CBBD;" d="M301,415.152h10.904V313.319h-22.343C289.778,323.182,291.236,361.491,301,415.152z"/>
	<path style="fill:#898785;" d="M166.175,317.348c-0.344-0.032-0.687-0.081-1.029-0.157c-2.124-0.475-3.938-1.749-5.104-3.588
		c-1.167-1.839-1.548-4.022-1.072-6.148l7.206-32.745v-34.863h-69.93v177.623h24.09l8.376-161.271
		c0.071-1.379,1.25-2.444,2.627-2.367c1.291,0.067,2.289,1.105,2.354,2.368l0.017-0.001l8.376,161.271h24.09V317.348z"/>
	<path style="fill:#F4A04D;" d="M181.761,225.451c-0.008,0.035-4.754,18.02-4.754,18.02l12.598,7.452l2.359-7.357l-8.008-23.46
		C182.353,222.878,181.808,225.239,181.761,225.451z"/>
	<path style="fill:#D8B4A4;" d="M171.124,275.481c0,0.003-0.001,0.005-0.001,0.008l-7.273,33.049
		c-0.186,0.83-0.038,1.674,0.413,2.386c0.451,0.711,1.152,1.204,1.974,1.387c0.822,0.184,1.667,0.037,2.379-0.414
		c0.711-0.451,1.204-1.152,1.388-1.974c0.013-0.06,0.029-0.12,0.047-0.179l16.583-54.768l-9.729-5.756L171.124,275.481z"/>
	<path style="fill:#754C24;" d="M163.212,422.471h-21v12.33h32.429c-0.222-2.549-0.994-6.614-3.588-9.35
		C169.151,423.446,166.586,422.471,163.212,422.471z"/>
	<path style="fill:#754C24;" d="M91.352,425.467c-2.564,2.717-3.339,6.783-3.565,9.334h32.422v-12.33h-21
		C95.825,422.471,93.255,423.451,91.352,425.467z"/>
	<path style="fill:#999999;" d="M198.674,428.149c-2.023,0.004-3.547,0.576-4.656,1.749c-1.31,1.384-1.854,3.361-2.078,4.903h20.025
		l-0.002-6.651H198.674z"/>
	<path style="fill:#BADFE8;" d="M96.245,139.867v94.98h32.463V109.539l-5.172-10.122l-16.46,7.498
		c-0.33,0.15-0.684,0.225-1.036,0.225c-0.455,0-0.907-0.124-1.307-0.369c-0.709-0.435-1.155-1.193-1.191-2.023l-0.727-16.754
		c0,0-7.417,2.554-7.479,2.57c-6.104,1.584-10.501,4.166-13.677,7.007l14.447,41.473C96.123,139.093,96.245,139.309,96.245,139.867z
		"/>
	<polygon style="fill:#D8B4A4;" points="211.961,423.149 211.941,365.113 198.034,365.113 201.043,423.149 	"/>
	<path style="fill:#1C1B1A;" d="M307.664,70.22c-1.381,0-2.5,1.119-2.5,2.5c0,3.14,3.8,5.333,9.24,5.333s9.24-2.193,9.24-5.333
		c0-1.381-1.119-2.5-2.5-2.5c-1.189,0-2.185,0.831-2.438,1.943c-0.493,0.32-1.96,0.89-4.303,0.89c-2.343,0-3.81-0.57-4.303-0.89
		C309.849,71.05,308.854,70.22,307.664,70.22z"/>
	<path style="fill:#1C1B1A;" d="M306.459,60.7c0-0.66-0.27-1.31-0.729-1.77c-0.941-0.93-2.62-0.93-3.54,0
		c-0.46,0.47-0.73,1.11-0.73,1.77c0,0.66,0.271,1.3,0.73,1.76c0.47,0.47,1.109,0.74,1.77,0.74c0.66,0,1.3-0.27,1.771-0.74
		C306.189,62,306.459,61.36,306.459,60.7z"/>
	<path style="fill:#1C1B1A;" d="M324.85,63.2c0.659,0,1.3-0.27,1.77-0.73c0.46-0.47,0.73-1.11,0.73-1.77c0-0.66-0.271-1.3-0.73-1.77
		c-0.93-0.93-2.61-0.93-3.54,0c-0.46,0.46-0.729,1.11-0.729,1.77c0,0.66,0.27,1.3,0.729,1.77
		C323.549,62.93,324.189,63.2,324.85,63.2z"/>
	<path style="fill:#1C1B1A;" d="M368.216,126.831c-0.148-0.651-2.976-12.531-13.157-20.175c15.704-17.518-2.842-55.854-5.518-61.139
		c-0.125-8.82-2.955-15.947-8.417-21.191c-10-9.602-25.232-9.385-26.723-9.339c-1.529-0.043-16.734-0.247-26.717,9.339
		c-5.462,5.244-8.292,12.372-8.417,21.191c-2.676,5.285-21.224,43.623-5.517,61.141c-10.184,7.645-13.011,19.524-13.16,20.185
		l-17.456,78.813l-10.74-3.727v-0.102c8.084-5.442,13.578-15.993,13.578-28.092c0-31.389-18.573-33.659-26.062-33.659
		c-4.626,0-12.872,1.148-18.852,8.336l-7.197-36.701c-0.218-1.974-2.822-20.049-25.426-25.961l-20.226-6.971v-8.502
		c5.668-6.486,9.275-16.138,9.275-26.907l-0.001-9.491c0-0.003,0.001-0.005,0.001-0.008c0-0.002-0.001-0.005-0.001-0.007
		l-0.001-15.528c0.01-0.248,0.181-6.121-4.698-11.192C148.227,2.403,140.968,0,131.21,0c-9.758,0-17.017,2.403-21.574,7.142
		c-4.879,5.072-4.708,10.945-4.7,11.095v25.132c0,10.769,3.606,20.421,9.274,26.907v8.502l-20.226,6.971
		c-22.604,5.912-25.208,23.987-25.426,25.961c0,0-21.395,109.509-21.393,109.532l0.976,13.347l-1.011,7.659
		c-0.406,3.125,0.429,6.222,2.352,8.719c1.923,2.498,4.702,4.097,7.827,4.503c0.518,0.067,1.033,0.101,1.547,0.101
		c2.587,0,5.089-0.847,7.173-2.451c2.469-1.9,4.06-4.638,4.489-7.719l2.129-9.856l7.231-13.289
		c0.024-0.044,11.366-56.87,11.366-56.87v71.961c0,0.004,0.002,0.009,0.002,0.014c0,0.004-0.002,0.009-0.002,0.014v181.949
		c-1.306,0.706-2.486,1.607-3.529,2.711c-5.49,5.816-5.026,15.021-5.004,15.41c0.076,1.323,1.171,2.356,2.496,2.356h37.5
		c1.381,0,2.5-1.119,2.5-2.5v-17.256l6.002-115.549l6.002,115.549v17.256c0,1.381,1.119,2.5,2.5,2.5h37.5
		c1.325,0,2.42-1.033,2.496-2.356c0.023-0.389,0.486-9.594-5.004-15.41c-1.043-1.105-2.224-2.006-3.529-2.711V316.183
		c0.039-0.024,0.08-0.04,0.119-0.064c1.811-1.149,3.074-2.924,3.566-5.007l16.339-53.959c0.243-0.017,1.012-0.272,1.146-0.356
		l0.91,48.698l-6.048,56.855c-0.074,0.705,0.153,1.409,0.627,1.937c0.475,0.527,1.15,0.828,1.859,0.828h3.333l3.022,58.281
		c-2.262,0.441-4.167,1.476-5.688,3.094c-3.916,4.166-3.573,10.686-3.557,10.962c0.079,1.32,1.173,2.351,2.495,2.351h25.167
		c0.663,0,1.299-0.264,1.769-0.732c0.469-0.469,0.731-1.105,0.731-1.769l-0.004-11.65c0,0,0,0,0,0v-0.001l-0.02-60.581
		c1.076-0.207,1.916-1.107,2.015-2.237l0.963-11.014l0.971,11.016c0.099,1.12,0.926,2.011,1.989,2.228l-0.021,60.588v0.001
		c0,0,0,0,0,0l-0.004,11.65c0,0.663,0.263,1.299,0.731,1.769c0.47,0.469,1.106,0.732,1.769,0.732h25.167
		c1.322,0,2.416-1.03,2.495-2.351c0.017-0.275,0.36-6.795-3.557-10.962c-1.521-1.618-3.427-2.653-5.688-3.094l3.022-58.281h3.333
		c0.709,0,1.385-0.301,1.859-0.828c0.474-0.527,0.701-1.231,0.627-1.937l-6.048-56.855l0.91-48.698
		c0.135,0.084,0.904,0.34,1.146,0.356l16.34,53.959c0.491,2.083,1.754,3.858,3.565,5.007c1.323,0.839,2.824,1.272,4.352,1.272
		c0.598,0,1.198-0.066,1.795-0.199c2.126-0.475,3.938-1.749,5.105-3.588c0.059-0.092,0.106-0.189,0.161-0.283h4.62
		c0.217,10.015,1.703,49.388,11.823,104.377c-0.32,1.921-2.383,11.839-11.571,17.473c-0.954,0.586-1.403,1.733-1.1,2.811
		c0.304,1.077,1.287,1.821,2.406,1.821h56.57c1.119,0,2.103-0.744,2.406-1.821c0.304-1.078-0.145-2.225-1.1-2.811
		c-9.191-5.637-11.252-15.56-11.57-17.475c10.119-54.988,11.605-94.36,11.822-104.375h17.541c1.381,0,2.5-1.119,2.5-2.5
		c0-4.378-0.246-106.844-21.459-139.422l0.691-11.74c0.849-0.276,1.662-0.685,2.436-1.197l25.25,82.898
		c1.181,5.017,5.673,8.424,10.634,8.424c0.793,0,1.6-0.087,2.406-0.27c2.846-0.643,5.271-2.355,6.829-4.822
		c1.559-2.467,2.064-5.393,1.422-8.229L368.216,126.831z M316.904,20.042c4.468,0.261,14.199,1.575,20.778,7.91
		c4.554,4.384,6.862,10.5,6.862,18.177c0,0.403,0.098,0.801,0.284,1.158c0.22,0.421,21.266,41.25,5.908,56.656
		c-2.175-1.125-4.596-2.058-7.309-2.696l-16.327-3.918V84.748c6.033-5.448,10.006-14.661,10.006-25.088v-6.889h-0.003
		c0.001-1.178-0.831-2.228-2.03-2.456c-0.182-0.035-18.17-3.589-18.17-15.185V20.042z M324.019,101.732l11.385,2.731
		c-1.271,6.898-9.375,11.413-20.999,11.413c-11.624,0-19.729-4.514-20.999-11.412l11.385-2.732c1.124-0.27,1.917-1.275,1.917-2.431
		V88.144c2.405,1.159,4.996,1.794,7.697,1.794c2.701,0,5.292-0.635,7.697-1.794v11.157
		C322.102,100.457,322.895,101.462,324.019,101.732z M314.404,43.655c4.436,6.885,13.604,10.003,17.703,11.094v4.912
		c0,9.308-3.544,17.452-8.805,21.839c-0.194,0.119-3.515,3.439-8.898,3.439c-5.384,0-8.704-3.321-8.898-3.439
		c-5.261-4.387-8.805-12.531-8.805-21.839v-4.912C300.8,53.658,309.968,50.54,314.404,43.655z M283.98,47.287
		c0.186-0.357,0.284-0.755,0.284-1.158c0-7.677,2.309-13.792,6.862-18.177c6.581-6.337,16.311-7.651,20.778-7.911V35.13
		c0,11.554-17.991,15.151-18.173,15.186c-1.197,0.229-2.028,1.278-2.027,2.456h-0.003v6.889c0,10.427,3.973,19.64,10.006,25.088
		V97.33l-16.316,3.916c-2.716,0.638-5.14,1.573-7.318,2.7C262.712,88.54,283.76,47.708,283.98,47.287z M262.04,143.419l14.906,6.772
		c0.525,1.514,1.189,2.865,1.946,4.07l-19.09,62.699c-2.239-3.639-5.936-7.674-11.885-9.783L262.04,143.419z M262.935,224.337
		c-0.014-0.061-0.037-0.16-0.066-0.278l19.974-65.604c0.777,0.514,1.593,0.925,2.445,1.202l0.691,11.741
		c-9.698,14.906-14.991,44.707-17.882,72.5L262.935,224.337z M267.895,245.87c-0.063,0.624-0.124,1.246-0.185,1.868l-0.279-1.271
		C267.616,246.29,267.772,246.089,267.895,245.87z M219.91,145.075c12.179,0,19.278,7.747,20.765,22.49h-21.31l-5.152-8.206
		l-0.007,0.004c-0.193-0.31-0.451-0.585-0.781-0.792c-1.169-0.733-2.712-0.382-3.446,0.788l-5.152,8.206h-5.68
		C199.147,153.723,210.261,145.075,219.91,145.075z M198.863,172.565h7.346c0.86,0,1.66-0.442,2.117-1.171l3.77-6.004l3.77,6.004
		c0.457,0.729,1.257,1.171,2.117,1.171h22.976c0.007,0.388,0.015,0.773,0.015,1.169c0,14.895-9.448,27.012-21.062,27.012
		c-11.613,0-21.061-12.117-21.061-27.012C198.849,173.339,198.856,172.953,198.863,172.565z M228.462,205.749
		c-1.2,1.842-4.448,3.471-8.516,3.471c-0.012,0-0.024,0-0.036,0c-0.013,0.001-0.023,0-0.036,0c-4.066,0-7.314-1.629-8.516-3.471
		c0.477-0.335,0.82-0.825,0.974-1.388c2.399,0.897,4.943,1.384,7.578,1.384c2.635,0,5.179-0.487,7.578-1.384
		C227.642,204.924,227.985,205.415,228.462,205.749z M188.933,112.56l8.275,42.201c-1.71,3.916-3.359,8.527-3.359,18.974
		c0,12.099,5.494,22.649,13.577,28.091v0.103l-12.947,4.493c-3.809,0.889-6.821,2.533-9.203,4.477l-14.017-70.849l13.317-38.23
		C188.312,107.037,188.916,112.474,188.933,112.56z M172.39,246.467l-1.215,5.523v-14.615c0-0.004-0.002-0.009-0.002-0.014
		c0-0.004,0.002-0.009,0.002-0.014v-71.962l9.892,49.999c-3.023,4.193-4.034,8.301-4.181,8.952l-5.195,19.686
		C171.454,244.919,171.74,245.849,172.39,246.467z M156.38,107.141c0.454,0,0.907-0.124,1.307-0.369
		c0.709-0.435,1.155-1.193,1.191-2.023l0.727-16.754c0,0,7.417,2.554,7.48,2.57c6.104,1.584,10.501,4.167,13.677,7.007
		l-14.447,41.473c-0.018,0.049-0.139,0.273-0.139,0.822v94.98h-32.463V109.539l5.172-10.122l16.46,7.498
		C155.674,107.066,156.027,107.141,156.38,107.141z M131.21,103.446l-12-23.487v-5.175c3.6,2.497,7.678,3.917,12,3.917
		c4.322,0,8.4-1.419,12-3.917v5.175L131.21,103.446z M154.672,86.295l-0.629,14.534l-12.882-5.868l5.787-11.328L154.672,86.295z
		 M113.316,10.528C116.906,6.86,122.927,5,131.21,5c8.283,0,14.304,1.86,17.894,5.528c3.431,3.506,3.386,7.466,3.381,7.709v12.777
		c-3.562-1.096-5.369-4.762-5.369-10.953c0-1.381-1.119-2.5-2.5-2.5h-0.001h-0.001c-1.381,0-2.5,1.119-2.5,2.5
		c0,1.96-4.247,4.807-10.903,4.807c-6.656,0-10.903-2.847-10.903-4.807c0-1.381-1.119-2.5-2.5-2.5h-0.001h-0.001
		c-1.381,0-2.5,1.119-2.5,2.5c0,6.191-1.807,9.857-5.37,10.953V18.161C109.931,17.994,109.886,14.034,113.316,10.528z
		 M109.936,43.369v-7.216c4.819-0.817,8.115-4.066,9.55-9.346c2.863,1.9,6.982,3.061,11.725,3.061c4.742,0,8.861-1.161,11.725-3.061
		c1.434,5.28,4.73,8.529,9.55,9.346v7.216c0,9.879-3.331,18.667-8.474,24.208c-0.063,0.059-4.729,6.123-12.801,6.123
		c-8.071,0-12.737-6.064-12.801-6.123C113.267,62.036,109.936,53.248,109.936,43.369z M115.472,83.633l5.787,11.328l-12.882,5.868
		l-0.629-14.534L115.472,83.633z M65.61,244.442c-0.015,0.068-0.026,0.137-0.036,0.206c-0.233,1.801-1.155,3.403-2.595,4.511
		c-1.44,1.108-3.228,1.588-5.025,1.355c-1.801-0.234-3.401-1.155-4.51-2.594c-1.107-1.439-1.589-3.224-1.355-5.021l0.756-5.734
		h14.338L65.61,244.442z M68.795,232.164H52.978l-0.629-8.603h21.128L68.795,232.164z M75.629,218.561H52.696L73.487,112.56
		c0.016-0.08,0.62-5.521,4.356-10.741l13.317,38.23L75.629,218.561z M81.659,97.572c3.176-2.841,7.572-5.424,13.677-7.007
		c0.062-0.016,7.479-2.57,7.479-2.57l0.727,16.754c0.036,0.83,0.482,1.588,1.191,2.023c0.399,0.245,0.852,0.369,1.307,0.369
		c0.353,0,0.706-0.075,1.036-0.225l16.46-7.498l5.172,10.122v125.309H96.245v-94.98c0-0.558-0.122-0.774-0.139-0.822L81.659,97.572z
		 M120.208,434.801H87.786c0.227-2.55,1.001-6.617,3.565-9.334c1.903-2.017,4.474-2.997,7.856-2.997h21V434.801z M133.709,256.2
		l-0.017,0.001c-0.066-1.263-1.063-2.3-2.354-2.368c-1.377-0.078-2.556,0.988-2.627,2.367l-8.376,161.271h-24.09V239.848h69.93
		v34.863l-7.206,32.745c-0.476,2.125-0.095,4.309,1.072,6.148c1.167,1.839,2.98,3.113,5.104,3.588
		c0.343,0.076,0.686,0.125,1.029,0.157v100.123h-24.09L133.709,256.2z M174.641,434.801h-32.429v-12.33h21
		c3.374,0,5.939,0.975,7.841,2.98C173.647,428.186,174.419,432.252,174.641,434.801z M170.05,309.743
		c-0.018,0.06-0.034,0.119-0.047,0.179c-0.184,0.822-0.677,1.523-1.388,1.974c-0.712,0.451-1.557,0.598-2.379,0.414
		c-0.821-0.183-1.522-0.676-1.974-1.387c-0.451-0.711-0.599-1.556-0.413-2.386l7.273-33.049c0-0.003,0.001-0.005,0.001-0.008
		l5.779-26.261l9.729,5.756L170.05,309.743z M189.605,250.924l-12.598-7.452c0,0,4.746-17.986,4.754-18.02
		c0.047-0.212,0.592-2.573,2.195-5.344l8.008,23.46L189.605,250.924z M191.939,434.801c0.224-1.542,0.769-3.519,2.078-4.903
		c1.109-1.172,2.633-1.744,4.656-1.749h13.289l0.002,6.651H191.939z M198.034,365.113h13.907l0.019,58.036h-10.918L198.034,365.113z
		 M245.804,429.898c1.31,1.384,1.855,3.361,2.077,4.902h-20.025l0.002-6.651h13.289C243.17,428.154,244.693,428.726,245.804,429.898
		z M227.859,423.149l0.02-58.036h13.907l-3.009,58.036H227.859z M247.347,360.113h-21.678l-3.268-37.105
		c-0.001-0.012-0.099-2.268-2.487-2.268c-2.389,0-2.492,2.259-2.493,2.27l-3.245,37.104h-21.701l5.533-52.011h43.807
		L247.347,360.113z M242.856,242.734c-0.014,0.039-0.134,0.278-0.134,0.761l-1.114,59.607h-43.396c0,0-1.152-59.887-1.152-59.956
		c0-0.197-0.082-0.373-0.096-0.413l-9.311-27.273c1.999-1.831,4.628-3.413,8.072-4.197c0.09-0.02,0.178-0.046,0.265-0.076
		l10.641-3.692c1.902,3.909,7.113,6.724,13.243,6.724c0.011,0,0.021,0,0.031,0c0.003,0,0.007,0,0.01,0c0.011,0,0.021,0,0.031,0
		c6.13,0,11.341-2.815,13.243-6.724l10.641,3.692c0.087,0.03,0.175,0.056,0.265,0.076c3.445,0.784,6.074,2.366,8.072,4.197
		L242.856,242.734z M247.856,243.566l8.01-23.46c1.113,1.923,1.715,3.644,1.993,4.588c0.011,0.04,4.954,18.777,4.954,18.777
		l-12.597,7.452L247.856,243.566z M275.558,310.924c-0.451,0.711-1.152,1.204-1.975,1.388c-0.818,0.183-1.665,0.037-2.377-0.415
		c-0.711-0.451-1.204-1.152-1.387-1.973c-0.014-0.061-0.029-0.121-0.048-0.18l-16.584-54.767l9.73-5.757l13.056,59.328
		C276.156,309.369,276.009,310.213,275.558,310.924z M311.904,434.801h-18.729c5.083-5.308,7.073-11.433,7.814-14.648h10.914
		V434.801z M311.904,415.152H301c-9.764-53.662-11.222-91.97-11.438-101.833h22.343V415.152z M335.633,434.801h-18.728v-14.648
		h10.914C328.56,423.368,330.55,429.493,335.633,434.801z M327.809,415.152h-10.904V313.319h22.343
		C339.03,323.182,337.572,361.491,327.809,415.152z M344.714,133.155c3.871,3.51,4.157,10.386,2.438,15.364
		c-1.341,3.884-3.714,6.406-6.192,6.583c-1.252,0.09-2.243,1.094-2.317,2.347l-0.854,14.491c-0.032,0.552,0.119,1.1,0.432,1.557
		c19.026,27.855,20.873,118.561,21.05,134.822h-78.275c-0.032-0.286-9.647-44.05-9.647-44.05
		c3.229-45.682,9.879-77.068,19.239-90.772c0.312-0.457,0.464-1.005,0.432-1.557l-0.853-14.491
		c-0.074-1.253-1.065-2.257-2.317-2.347c-2.478-0.177-4.852-2.7-6.192-6.583c-1.719-4.978-1.433-11.854,2.439-15.364
		c1.023-0.927,1.101-2.508,0.174-3.531c-0.929-1.022-2.508-1.102-3.531-0.173c-4.085,3.703-5.382,9.424-5.004,14.698l-12.588-5.719
		l2.324-10.495c0.04-0.178,4.232-17.867,21.076-21.825l1.963-0.471c1.807,9.233,11.756,15.237,25.896,15.237
		c14.14,0,24.09-6.004,25.895-15.237l1.974,0.474c16.756,3.938,20.898,21.099,21.064,21.811l2.327,10.506l-12.589,5.72
		c0.378-5.274-0.919-10.996-5.004-14.698c-1.023-0.929-2.604-0.849-3.531,0.173C343.613,130.646,343.69,132.227,344.714,133.155z
		 M386.851,242.02c-0.846,1.338-2.161,2.267-3.704,2.615c-3.188,0.717-6.363-1.289-7.083-4.475c-0.014-0.06-0.029-0.119-0.047-0.178
		l-26.107-85.712c0.76-1.207,1.426-2.561,1.953-4.08l14.906-6.772l20.852,94.135C387.969,239.097,387.695,240.683,386.851,242.02z"
		/>
	<path style="fill:#1C1B1A;" d="M131.21,65.815c5.286,0,8.978-2.147,8.978-5.223c0-1.381-1.119-2.5-2.5-2.5
		c-1.175,0-2.161,0.811-2.429,1.903c-0.486,0.299-1.872,0.819-4.049,0.819c-2.177,0-3.562-0.52-4.049-0.819
		c-0.268-1.092-1.254-1.903-2.429-1.903c-1.381,0-2.5,1.119-2.5,2.5C122.232,63.668,125.924,65.815,131.21,65.815z"/>
	<path style="fill:#1C1B1A;" d="M120.439,48.46c0.66,0,1.31-0.26,1.77-0.73c0.471-0.46,0.73-1.11,0.73-1.77
		c0-0.65-0.26-1.3-0.73-1.77c-0.93-0.93-2.609-0.92-3.529,0c-0.471,0.47-0.74,1.12-0.74,1.77c0,0.66,0.27,1.31,0.74,1.77
		C119.14,48.2,119.789,48.46,120.439,48.46z"/>
	<path style="fill:#1C1B1A;" d="M141.98,48.46c0.649,0,1.3-0.26,1.76-0.73c0.47-0.46,0.74-1.11,0.74-1.77c0-0.66-0.27-1.3-0.74-1.76
		c-0.93-0.93-2.6-0.93-3.53,0c-0.47,0.46-0.74,1.1-0.74,1.76c0,0.66,0.27,1.31,0.74,1.77C140.669,48.2,141.319,48.46,141.98,48.46z"
		/>
	<path style="fill:#1C1B1A;" d="M211.523,190.621c0.007,2.852,3.362,4.764,8.356,4.764c0.014,0,0.028,0,0.041,0
		c1.874-0.004,3.673-0.305,5.065-0.849c2.888-1.126,3.314-2.959,3.312-3.951c-0.003-1.379-1.122-2.494-2.5-2.494
		c-0.002,0-0.004,0-0.006,0c-1.089,0.003-2.014,0.701-2.355,1.674c-0.51,0.254-1.733,0.616-3.526,0.62c-0.01,0-0.02,0-0.028,0
		c-1.778,0-2.993-0.355-3.501-0.605c-0.345-0.97-1.27-1.665-2.357-1.665c-0.002,0-0.004,0-0.006,0
		C212.637,188.119,211.521,189.24,211.523,190.621z"/>
	<path style="fill:#1C1B1A;" d="M210.129,180.87c0.66,0,1.301-0.27,1.77-0.74c0.46-0.46,0.73-1.11,0.73-1.76
		c0-0.66-0.27-1.3-0.73-1.77c-0.94-0.93-2.61-0.93-3.54,0c-0.47,0.46-0.73,1.11-0.73,1.77c0,0.66,0.261,1.3,0.73,1.76
		C208.819,180.6,209.469,180.87,210.129,180.87z"/>
	<path style="fill:#1C1B1A;" d="M229.689,180.82c0.66,0,1.31-0.26,1.77-0.73c0.471-0.46,0.73-1.11,0.73-1.76
		c0-0.66-0.26-1.31-0.73-1.77c-0.93-0.93-2.609-0.93-3.529,0c-0.471,0.46-0.74,1.11-0.74,1.77c0,0.65,0.27,1.3,0.74,1.76
		C228.39,180.56,229.039,180.82,229.689,180.82z"/>
</g>
<g>
</g>
<g>
</g>
<g>
</g>
<g>
</g>
<g>
</g>
<g>
</g>
<g>
</g>
<g>
</g>
<g>
</g>
<g>
</g>
<g>
</g>
<g>
</g>
<g>
</g>
<g>
</g>
<g>
</g>
</svg>
