<?xml version="1.0" encoding="iso-8859-1"?>
<!-- Generator: Adobe Illustrator 19.0.0, SVG Export Plug-In . SVG Version: 6.00 Build 0)  -->
<svg version="1.1" id="Layer_1" xmlns="http://www.w3.org/2000/svg" xmlns:xlink="http://www.w3.org/1999/xlink" x="0px" y="0px"
	 viewBox="0 0 473.935 473.935" style="enable-background:new 0 0 473.935 473.935;" xml:space="preserve">
<circle style="fill:#49A0AE;" cx="236.967" cy="236.967" r="236.967"/>
<g style="opacity:0.8;">
	<path style="fill:#C4E7ED;" d="M342.703,100.935l-189.394,95.984c-13.527,6.855-32.086,15.136-31.944,32.018
		c-0.045,0.019,0.236,3.02-1.096,6.174c-1.332,3.154-3.39,5.328-3.39,5.328c-4.011,2.032-12.935,6.563-15.36,8.026
		c-8.52,5.137-7.102,16.677-1.549,27.633c5.826,11.487,15.229,19.36,23.794,15.353c2.496-1.171,11.304-5.616,15.136-7.555
		c0,0,3.326-1.459,5.669-0.842c2.35,0.617,5.508,2.406,5.508,2.406c0.007-0.007,0.015-0.015,0.015-0.015
		c14.451,11.188,36.25-0.558,45.444-5.22l189.391-95.984c7.667-3.88,16.539-16.262-1.908-52.647
		C363.848,93.762,350.366,97.055,342.703,100.935z"/>
</g>
<path style="fill:#D6EFF2;" d="M99.966,276.095c5.826,11.487,15.229,19.36,23.794,15.353c2.496-1.171,11.304-5.616,15.136-7.555
	c0,0,3.326-1.459,5.669-0.842c2.35,0.617,5.508,2.406,5.508,2.406c0.007-0.007,0.015-0.015,0.015-0.015
	c14.451,11.188,36.25-0.558,45.444-5.22l189.391-95.984c7.667-3.88,16.539-16.262-1.908-52.647
	c-7.667-15.15-88.703,24.958-142.91,53.171C158.936,226.999,96.635,269.528,99.966,276.095z"/>
<path style="fill:#B5DDE1;" d="M318.033,211.886L174.7,270.673c-12.819,6.492-9.212-6.316-22.657-1.093
	c-0.037,0.015-22.443,9.137-22.443,9.137c-3.802,1.931-7.368-2.185-9.658-0.804c-8.071,4.868-10.496,4.116-5.231,14.496
	c5.515,10.885,4.359-0.625,12.479-4.43c2.369-1.111,8.456-4.606,12.082-6.443c0,0,4.962-0.786,7.18-0.198
	c2.226,0.584,5.216,2.271,5.216,2.271c0.007-0.004,0.007-0.007,0.007-0.007c13.702,10.597,34.365-0.535,43.068-4.947l179.452-90.944
	C381.457,184.044,325.3,208.212,318.033,211.886z"/>
<g style="opacity:0.5;">
	<path style="fill:#73BFCB;" d="M102.72,252.286c-7.42,3.764-5.946,13.953-1.298,23.117c4.872,9.616,12.853,16.426,19.91,12.849
		c3.697-1.878,4.524-8.273-2.312-21.762C112.265,253.166,106.244,250.498,102.72,252.286z"/>
</g>
<g>
	<path style="fill:#67B8CB;" d="M116.878,240.44c-0.92,0.468-2.11,1.07-3.413,1.732c0,0,10.286,6.975,16.172,18.585
		c5.882,11.615,5.848,24.864,5.848,24.864c1.317-0.662,2.507-1.265,3.413-1.725c0,0,0.168-0.075,0.438-0.168
		c0,0,1.347-10.664-5.751-24.673c-7.098-14.002-16.374-18.993-16.374-18.993C117.002,240.309,116.878,240.44,116.878,240.44z"/>
	<path style="fill:#67B8CB;" d="M310.348,222.135l-70.514,35.738c0,0-4.748-23.622-16.157-46.129
		c-11.401-22.507-26.005-37.074-26.005-37.074l70.51-35.734c0,0,12.905,11.214,25.523,36.112
		C306.325,199.95,310.348,222.135,310.348,222.135z"/>
</g>
<path style="fill:#C4E7ED;" d="M119.692,349.794c0,0-8.359,19.659-7.611,26.829c0.595,5.691,5.691,9.815,11.383,9.223
	c5.68-0.591,9.815-5.684,9.216-11.379C131.992,367.814,119.692,349.794,119.692,349.794z"/>
<path style="fill:#FFFFFF;" d="M122.289,383.586c6.825-0.857,8.172-2.63,8.101-9.991c0,0-1.564,3.046-3.558,5.77
	C125.021,381.842,122.289,383.586,122.289,383.586z"/>
<path style="fill:#C4E7ED;" d="M118.214,304.507c0,0-9.186,16.565-9.186,22.96c0,5.066,4.116,9.179,9.186,9.179
	c5.066,0,9.179-4.112,9.179-9.179C127.393,321.532,118.214,304.507,118.214,304.507z"/>
<path style="fill:#FFFFFF;" d="M117.387,334.549c6.103-0.127,7.454-1.572,8.075-8.067c0,0-1.665,2.544-3.674,4.763
	C119.962,333.262,117.387,334.549,117.387,334.549z"/>
<g>
</g>
<g>
</g>
<g>
</g>
<g>
</g>
<g>
</g>
<g>
</g>
<g>
</g>
<g>
</g>
<g>
</g>
<g>
</g>
<g>
</g>
<g>
</g>
<g>
</g>
<g>
</g>
<g>
</g>
</svg>
