<?xml version="1.0" encoding="iso-8859-1"?>
<!-- Generator: Adobe Illustrator 19.0.0, SVG Export Plug-In . SVG Version: 6.00 Build 0)  -->
<svg version="1.1" id="Layer_1" xmlns="http://www.w3.org/2000/svg" xmlns:xlink="http://www.w3.org/1999/xlink" x="0px" y="0px"
	 viewBox="0 0 512 512" style="enable-background:new 0 0 512 512;" xml:space="preserve">
<circle style="fill:#88888F;" cx="86.99" cy="355.418" r="59.65"/>
<path style="fill:#EDEDED;" d="M86.99,372.814c-9.593,0-17.398-7.805-17.398-17.398c0-9.594,7.805-17.398,17.398-17.398
	s17.398,7.804,17.398,17.398C104.388,365.009,96.583,372.814,86.99,372.814z"/>
<path style="fill:#EFC27B;" d="M67.107,176.463L67.107,176.463L67.107,176.463c0,0.001,0.416,14.899,0.62,14.883
	c7.565,91.868,84.511,164.069,178.331,164.069h69.592c16.471,0,29.825-13.354,29.825-29.825V176.463L67.107,176.463L67.107,176.463z
	"/>
<path style="fill:#ECB45C;" d="M256,176.464v178.951h59.65c16.471,0,29.825-13.354,29.825-29.825V176.464L256,176.464L256,176.464z"
	/>
<path style="fill:#88888F;" d="M322.341,177.416c-11.27-10.017-6.471-11.064-20.966-21.978c-7.041-5.302-17.673-8.047-26.916-14.149
	c-7.992-5.278-14.592-14.033-23.674-19.099c-8.693-4.851-19.525-5.869-28.754-9.851c-9.399-4.055-17.669-11.241-27.15-13.706
	c-10.117-2.632-20.643-0.247-30.288-0.247c-7.16,0-14.376-2.73-20.424-0.713c-6.546,2.182-10.664,8.88-15.99,12.753
	c-5.492,3.994-13.044,5.802-17.336,10.84c-4.479,5.256-5.105,13.176-8.383,18.72c-3.725,6.301-10.251,10.717-12.575,16.192
	c-4.65,10.95-0.456,10.472-2.896,20.233"/>
<path style="fill:#797781;" d="M301.376,155.438c-7.041-5.302-17.673-8.047-26.916-14.149c-6.382-4.214-11.88-10.642-18.459-15.642
	v51.488l66.341,0.282C311.071,167.399,315.871,166.352,301.376,155.438z"/>
<path style="fill:#6DC180;" d="M454.835,176.463h29.825c10.982,0,19.883,8.902,19.883,19.883s-8.902,19.883-19.883,19.883h-29.825
	h-19.883v-39.767H454.835z"/>
<g>
	<path style="fill:#2E2D31;" d="M86.99,382.755c-15.076,0-27.34-12.265-27.34-27.34c0-15.075,12.264-27.34,27.34-27.34
		s27.34,12.265,27.34,27.34C114.33,370.49,102.066,382.755,86.99,382.755z M86.99,342.988c-6.853,0-12.427,5.574-12.427,12.427
		c0,6.853,5.574,12.427,12.427,12.427s12.427-5.574,12.427-12.427C99.417,348.564,93.843,342.988,86.99,342.988z"/>
	<path style="fill:#2E2D31;" d="M484.66,169.008h-49.709c-4.118,0-7.456,3.337-7.456,7.456v12.852
		c-33.506,3.722-59.65,32.201-59.65,66.682v99.418c0,13.941-5.429,27.049-15.287,36.907s-22.965,15.286-36.907,15.286
		c-12.335,0-22.369-10.035-22.369-22.369c0-8.386-2.785-16.133-7.477-22.369h29.846c20.558,0,37.282-16.724,37.282-37.282V176.464
		c0-4.119-3.338-7.456-7.456-7.456h-21.202c-2.684-2.598-3.722-4.171-4.886-5.94c-2.6-3.95-5.093-7.236-13.527-13.586
		c-4.268-3.214-9.183-5.425-14.387-7.766c-4.372-1.967-8.894-4.001-12.906-6.65c-3.036-2.005-6.026-4.77-9.192-7.697
		c-4.487-4.149-9.126-8.438-14.957-11.691c-5.709-3.185-11.848-4.851-17.785-6.461c-4.176-1.133-8.12-2.203-11.648-3.725
		c-3.416-1.473-6.768-3.479-10.318-5.601c-5.553-3.321-11.296-6.755-17.909-8.474c-8.11-2.11-16.194-1.493-23.323-0.948
		c-3.119,0.238-6.064,0.462-8.841,0.462c-2.142,0-4.463-0.329-6.919-0.677c-4.875-0.692-10.402-1.474-15.863,0.347
		c-5.821,1.942-9.824,5.968-13.358,9.521c-1.637,1.646-3.184,3.203-4.659,4.275c-1.675,1.219-3.837,2.289-6.125,3.42
		c-4.183,2.07-8.924,4.416-12.502,8.616c-3.541,4.157-5.152,9.032-6.573,13.334c-0.813,2.463-1.582,4.787-2.551,6.427
		c-1.332,2.255-3.304,4.375-5.389,6.622c-2.892,3.114-5.883,6.333-7.63,10.451c-3.106,7.315-3.101,11.006-2.77,15.07
		c0.019,0.231,0.037,0.453,0.053,0.673H57.165c-4.118,0-7.456,3.337-7.456,7.456s3.338,7.456,7.456,7.456h2.647
		c1.56,39.447,15.432,75.777,37.876,105.25c-3.486-0.561-7.057-0.862-10.698-0.862c-34.482,0-62.96,26.146-66.682,59.65H7.456
		c-4.118,0-7.456,3.337-7.456,7.456c0,4.119,3.338,7.456,7.456,7.456h12.852c2.001,18.017,11.162,33.899,24.568,44.738H27.34
		c-4.118,0-7.456,3.337-7.456,7.456c0,4.119,3.338,7.456,7.456,7.456h288.272c0.013,0,0.026,0.001,0.039,0.001
		c0.013,0,0.025-0.001,0.039-0.001h59.612c4.118,0,7.456-3.337,7.456-7.456c0-4.119-3.338-7.456-7.456-7.456h-17.535
		c15.229-12.313,24.992-31.13,24.992-52.193v-99.418c0-26.247,19.479-48.024,44.738-51.653v11.886c0,4.119,3.338,7.456,7.456,7.456
		h49.709c15.076,0,27.34-12.265,27.34-27.34S499.736,169.008,484.66,169.008z M95.117,167.128c-0.178-2.192-0.286-3.515,1.633-8.034
		c0.727-1.713,2.72-3.858,4.83-6.129c2.414-2.599,5.151-5.545,7.3-9.182c1.788-3.024,2.848-6.233,3.874-9.338
		c1.089-3.295,2.117-6.406,3.766-8.342c1.589-1.865,4.588-3.349,7.764-4.92c2.745-1.358,5.583-2.763,8.282-4.725
		c2.439-1.774,4.485-3.832,6.464-5.821c2.592-2.607,5.038-5.068,7.5-5.889c2.129-0.712,5.493-0.234,9.054,0.271
		c2.727,0.387,5.817,0.824,9.011,0.824c3.345,0,6.716-0.257,9.975-0.506c6.548-0.5,12.732-0.972,18.436,0.513
		c4.546,1.181,9.142,3.931,14.009,6.841c3.808,2.277,7.746,4.632,12.063,6.494c4.505,1.945,9.154,3.206,13.651,4.425
		c5.303,1.439,10.312,2.797,14.423,5.092c4.279,2.387,8.078,5.899,12.098,9.618c3.466,3.204,7.049,6.518,11.099,9.192
		c5.016,3.312,10.324,5.699,15.006,7.805c4.421,1.988,8.598,3.867,11.534,6.077c4.919,3.704,7.043,5.806,8.455,7.613H95.244
		C95.212,168.322,95.163,167.698,95.117,167.128z M338.019,183.921v141.67c0,12.334-10.034,22.369-22.369,22.369h-69.592
		c-92.064,0-167.417-72.923-171.335-164.039L338.019,183.921L338.019,183.921z M153.673,347.959
		c-0.415-3.734-1.144-7.373-2.148-10.898c6.896,4.075,14.071,7.723,21.496,10.898H153.673z M86.99,303.222
		c26.248,0,48.023,19.479,51.653,44.738H35.337C38.968,322.7,60.742,303.222,86.99,303.222z M35.337,362.872h103.306
		c-3.63,25.259-25.405,44.738-51.653,44.738C60.742,407.61,38.968,388.131,35.337,362.872z M153.673,362.872H256
		c12.335,0,22.369,10.035,22.369,22.369c0,8.387,2.786,16.134,7.476,22.369H129.104
		C142.511,396.771,151.671,380.889,153.673,362.872z M484.66,208.775h-42.252v-24.854h42.252c6.853,0,12.427,5.574,12.427,12.427
		C497.087,203.201,491.513,208.775,484.66,208.775z"/>
	<path style="fill:#2E2D31;" d="M323.107,206.289c0-4.119-3.338-7.456-7.456-7.456H106.874c-4.118,0-7.456,3.337-7.456,7.456
		s3.338,7.456,7.456,7.456H315.65C319.768,213.746,323.107,210.408,323.107,206.289z"/>
</g>
<g>
</g>
<g>
</g>
<g>
</g>
<g>
</g>
<g>
</g>
<g>
</g>
<g>
</g>
<g>
</g>
<g>
</g>
<g>
</g>
<g>
</g>
<g>
</g>
<g>
</g>
<g>
</g>
<g>
</g>
</svg>
