<?xml version="1.0" encoding="iso-8859-1"?>
<!-- Generator: Adobe Illustrator 19.0.0, SVG Export Plug-In . SVG Version: 6.00 Build 0)  -->
<svg version="1.1" id="Layer_1" xmlns="http://www.w3.org/2000/svg" xmlns:xlink="http://www.w3.org/1999/xlink" x="0px" y="0px"
	 viewBox="0 0 512 512" style="enable-background:new 0 0 512 512;" xml:space="preserve">
<path style="fill:#FED766;" d="M304.505,377.223h-97.011V44.283c0-10.104,7.018-18.852,16.881-21.045l67.012-14.891
	c6.731-1.496,13.117,3.626,13.117,10.522v358.354H304.505z"/>
<path style="fill:#FF9D00;" d="M207.495,309.896V108.957c0-10.104,7.018-18.852,16.881-21.045l67.012-14.891
	c6.731-1.496,13.117,3.626,13.117,10.522v226.352L207.495,309.896L207.495,309.896z"/>
<path style="fill:#AD3C1E;" d="M207.495,374.569V173.63c0-10.104,7.018-18.852,16.881-21.045l67.012-14.891
	c6.731-1.496,13.117,3.626,13.117,10.522v226.352L207.495,374.569L207.495,374.569z"/>
<path style="fill:#84A7B7;" d="M256,503.915c-83.343,0-150.905-67.562-150.905-150.904S172.657,202.107,256,202.107
	s150.905,67.562,150.905,150.904S339.343,503.915,256,503.915z"/>
<path style="fill:#CFDFE2;" d="M256,471.579c-65.483,0-118.568-53.084-118.568-118.568S190.517,234.442,256,234.442
	s118.568,53.084,118.568,118.568S321.483,471.579,256,471.579z"/>
<path style="fill:#FFFFFF;" d="M333.277,384.914c-0.647,1.573-1.35,3.143-2.088,4.666c-1.397,2.88-4.279,4.557-7.279,4.557
	c-1.184,0-2.386-0.261-3.523-0.812c-4.017-1.949-5.693-6.785-3.746-10.802c0.595-1.226,1.16-2.49,1.682-3.758
	c1.699-4.128,6.42-6.1,10.552-4.402C333.004,376.061,334.975,380.784,333.277,384.914z M300.722,403.523
	c-13.653,12.119-31.203,18.099-49.41,16.827c-37.057-2.583-65.105-34.832-62.522-71.889c1.251-17.951,9.418-34.341,22.996-46.15
	c13.578-11.808,30.939-17.621,48.893-16.372c6.541,0.456,12.937,1.842,19.012,4.121c4.181,1.565,8.841-0.551,10.408-4.731
	c1.568-4.18-0.55-8.841-4.731-10.408c-7.538-2.827-15.466-4.547-23.565-5.111c-45.951-3.192-85.941,31.576-89.143,77.528
	c-3.202,45.951,31.577,85.939,77.528,89.142c1.992,0.138,3.974,0.207,5.95,0.207c20.428,0,39.882-7.37,55.318-21.072
	c3.339-2.964,3.643-8.073,0.679-11.413C309.171,400.862,304.061,400.558,300.722,403.523z"/>
<path style="fill:#FC8059;" d="M385.94,256.449L282.314,381.89c-14.725,17.825-41.598,19.101-57.947,2.753l0,0
	c-16.348-16.348-15.072-43.221,2.753-57.947l125.442-103.626c9.424-7.785,23.221-7.129,31.864,1.513l0,0
	C393.069,233.228,393.725,247.025,385.94,256.449z"/>
<path style="fill:#AD3C1E;" d="M256,373.491c-11.31,0-20.48-9.17-20.48-20.48s9.17-20.48,20.48-20.48
	c11.31,0,20.48,9.17,20.48,20.48C276.48,364.322,267.31,373.491,256,373.491z"/>
<path style="fill:#4C4C4C;" d="M388.844,265.629l3.33-4.03c10.495-12.706,9.623-31.076-2.03-42.728
	c-11.655-11.654-30.024-12.526-42.73-2.031l-4.03,3.33c-9.731-6.417-20.051-11.697-30.793-15.791V18.869
	c0-5.752-2.573-11.114-7.059-14.713c-4.487-3.599-10.281-4.951-15.896-3.7l-67.012,14.891
	c-13.669,3.038-23.213,14.936-23.213,28.936v160.144c-59.812,22.855-102.4,80.839-102.4,148.585C97.01,440.678,168.333,512,256,512
	s158.989-71.322,158.989-158.988C414.989,321.71,405.962,291.59,388.844,265.629z M357.711,229.303
	c6.245-5.158,15.272-4.729,20.998,0.997v0.001c5.727,5.726,6.156,14.754,0.998,20.998l-73.969,89.541
	c-4.521-18.474-19.095-33.048-37.569-37.569L357.711,229.303z M242.299,303.672c-21.601,6.007-37.499,25.851-37.499,49.34
	c0,28.231,22.969,51.2,51.2,51.2c23.488,0,43.332-15.898,49.338-37.498l50.483-61.111c7,14.736,10.663,30.937,10.663,47.409
	c0,60.92-49.563,110.484-110.484,110.484s-110.484-49.564-110.484-110.484S195.078,242.527,256,242.527
	c16.457,0,32.675,3.665,47.409,10.664L242.299,303.672z M256,317.98c19.316,0,35.032,15.715,35.032,35.032c0,0.011,0,0.022,0,0.03
	v0.003c-0.002,2.691-0.322,5.403-0.951,8.06c-0.023,0.097-0.044,0.193-0.064,0.29c-3.767,15.282-17.589,26.647-34.017,26.647
	c-19.316,0-35.032-15.715-35.032-35.032c0-16.424,11.362-30.245,26.638-34.015c0.099-0.019,0.198-0.041,0.298-0.065
	c2.66-0.628,5.372-0.949,8.062-0.952C255.978,317.982,255.988,317.98,256,317.98z M215.579,44.283
	c0-6.364,4.339-11.773,10.55-13.152l67.012-14.891c0.213-0.047,0.415-0.068,0.605-0.068c0.787,0,1.364,0.352,1.666,0.596
	c0.377,0.302,1.009,0.977,1.009,2.102v45.995c-2.225-0.317-4.521-0.239-6.786,0.265L222.623,80.02
	c-2.496,0.555-4.855,1.405-7.043,2.509V44.283H215.579z M215.579,108.957c0-6.364,4.339-11.773,10.55-13.152l67.012-14.891
	c1.098-0.247,1.894,0.226,2.271,0.528c0.377,0.302,1.009,0.977,1.009,2.102v45.995c-2.225-0.317-4.521-0.239-6.786,0.265
	l-67.012,14.891c-2.496,0.555-4.855,1.404-7.043,2.509v-38.247H215.579z M215.579,173.629c0-6.364,4.339-11.773,10.55-13.152
	l67.012-14.891c1.098-0.246,1.894,0.226,2.271,0.528c0.377,0.302,1.009,0.977,1.009,2.102v50.981
	c-13.076-3.424-26.633-5.175-40.421-5.175c-13.96,0-27.511,1.811-40.421,5.205V173.629z M256,495.831
	c-78.752,0-142.821-64.069-142.821-142.82S177.248,210.191,256,210.191c15.646,0,30.963,2.509,45.488,7.385
	c0.275,0.111,0.558,0.207,0.847,0.288c9.719,3.331,19.079,7.723,27.94,13.135l-13.297,10.984
	c-18.599-10.228-39.618-15.622-60.979-15.622c-69.837,0-126.653,56.816-126.653,126.653S186.163,479.663,256,479.663
	s126.653-56.816,126.653-126.652c0-21.381-5.389-42.37-15.622-60.979l10.985-13.297c13.639,22.334,20.806,47.833,20.806,74.276
	C398.821,431.762,334.752,495.831,256,495.831z"/>
<g>
</g>
<g>
</g>
<g>
</g>
<g>
</g>
<g>
</g>
<g>
</g>
<g>
</g>
<g>
</g>
<g>
</g>
<g>
</g>
<g>
</g>
<g>
</g>
<g>
</g>
<g>
</g>
<g>
</g>
</svg>
