<?xml version="1.0" encoding="iso-8859-1"?>
<!-- Generator: Adobe Illustrator 19.0.0, SVG Export Plug-In . SVG Version: 6.00 Build 0)  -->
<svg version="1.1" id="Layer_1" xmlns="http://www.w3.org/2000/svg" xmlns:xlink="http://www.w3.org/1999/xlink" x="0px" y="0px"
	 viewBox="0 0 512 512" style="enable-background:new 0 0 512 512;" xml:space="preserve">
<rect x="246.224" y="231.834" style="fill:#E6E6E6;" width="18.308" height="51.31"/>
<path style="fill:#F4550F;" d="M255.378,240.988c-50.346,0-91.306-40.96-91.306-91.306s40.96-91.306,91.306-91.306
	s91.306,40.96,91.306,91.306S305.723,240.988,255.378,240.988z"/>
<rect y="309.8" style="fill:#CCCCCC;" width="512" height="102.522"/>
<rect y="352.517" style="fill:#B3B3B3;" width="512" height="59.805"/>
<path style="fill:#35D8B9;" d="M202.206,96.511c29.37-29.37,76.979-29.363,106.342,0c29.37,29.37,29.37,76.972,0,106.342
	c-29.363,29.363-76.972,29.37-106.342,0C172.844,173.491,172.844,125.873,202.206,96.511z"/>
<path style="fill:#B9FCEF;" d="M308.549,96.511c29.37,29.37,29.37,76.972,0,106.342c-29.363,29.363-76.972,29.37-106.342,0"/>
<g>
	<path style="fill:#E6E6E6;" d="M125.858,412.322v17.392c0,10.997-8.91,19.906-19.906,19.906s-19.906-8.91-19.906-19.906v-17.392
		V309.8v-17.392c0-10.985,8.91-19.906,19.906-19.906c5.504,0,10.472,2.234,14.072,5.834c3.613,3.6,5.834,8.58,5.834,14.072V309.8
		V412.322z"/>
	<path style="fill:#E6E6E6;" d="M424.71,412.322v17.392c0,10.997-8.91,19.906-19.906,19.906c-10.997,0-19.906-8.91-19.906-19.906
		v-17.392V309.8v-17.392c0-10.985,8.91-19.906,19.906-19.906c5.504,0,10.472,2.234,14.072,5.834c3.613,3.6,5.834,8.58,5.834,14.072
		V309.8V412.322z"/>
</g>
<path style="fill:#B3B3B3;" d="M354.995,412.322v23.885c0,9.618-7.799,17.417-17.417,17.417H173.177
	c-9.618,0-17.417-7.799-17.417-17.417v-23.885V309.8v-23.885c0-9.618,7.799-17.417,17.417-17.417h82.201h82.201
	c9.618,0,17.417,7.799,17.417,17.417V309.8V412.322z"/>
<g>
	<path style="fill:#CCCCCC;" d="M125.858,369.909v59.805c0,10.997-8.91,19.906-19.906,19.906s-19.906-8.91-19.906-19.906v-59.805
		c0,10.997,8.91,19.906,19.906,19.906S125.858,380.906,125.858,369.909z"/>
	<path style="fill:#CCCCCC;" d="M424.71,369.909v59.805c0,10.997-8.91,19.906-19.906,19.906c-10.997,0-19.906-8.91-19.906-19.906
		v-59.805c0,10.997,8.91,19.906,19.906,19.906C415.8,389.816,424.71,380.906,424.71,369.909z"/>
</g>
<path style="fill:#999999;" d="M354.995,376.402v59.805c0,9.618-7.799,17.417-17.417,17.417H173.177
	c-9.618,0-17.417-7.799-17.417-17.417v-59.805c0,9.618,7.799,17.417,17.417,17.417h164.401
	C347.196,393.819,354.995,386.02,354.995,376.402z"/>
<path style="fill:#FFFFFF;" d="M306.93,357.524l-35.089-35.102c-2.62-2.622-6.87-2.623-9.493-0.001
	c-2.622,2.62-2.622,6.871-0.001,9.493l23.635,23.644H207.4c-3.707,0-6.713,3.005-6.713,6.713c0,3.708,3.006,6.713,6.713,6.713
	h78.577l-23.63,23.63c-2.622,2.622-2.622,6.871,0,9.493c1.31,1.311,3.028,1.966,4.747,1.966s3.436-0.655,4.747-1.966l35.089-35.089
	C309.552,364.394,309.552,360.145,306.93,357.524z"/>
<polygon style="fill:#808080;" points="246.224,164.331 255.378,116.959 264.531,164.331 "/>
<g>
</g>
<g>
</g>
<g>
</g>
<g>
</g>
<g>
</g>
<g>
</g>
<g>
</g>
<g>
</g>
<g>
</g>
<g>
</g>
<g>
</g>
<g>
</g>
<g>
</g>
<g>
</g>
<g>
</g>
</svg>
