<?xml version="1.0" encoding="iso-8859-1"?>
<!-- Generator: Adobe Illustrator 19.0.0, SVG Export Plug-In . SVG Version: 6.00 Build 0)  -->
<svg version="1.1" id="Layer_1" xmlns="http://www.w3.org/2000/svg" xmlns:xlink="http://www.w3.org/1999/xlink" x="0px" y="0px"
	 viewBox="0 0 415 415" style="enable-background:new 0 0 415 415;" xml:space="preserve">
<g>
	<g id="XMLID_30_">
		<g>
			<path style="fill:#F4661E;" d="M307.5,297.5c0,22.1-17.9,40-40,40s-40-17.9-40-40s17.9-40,40-40S307.5,275.4,307.5,297.5z"/>
			<path style="fill:#F4661E;" d="M107.5,297.5c0-22.1,17.9-40,40-40s40,17.9,40,40s-17.9,40-40,40S107.5,319.6,107.5,297.5z"/>
			<path style="fill:#F4661E;" d="M207.5,142.5c11,0,20,9,20,20s-9,20-20,20s-20-9-20-20S196.5,142.5,207.5,142.5z"/>
			<path style="fill:#E7ECED;" d="M117.5,137.5c0-49.7,40.3-90,90-90s90,40.3,90,90s-40.3,90-90,90S117.5,187.2,117.5,137.5z
				 M207.5,142.5c-11,0-20,9-20,20s9,20,20,20s20-9,20-20S218.5,142.5,207.5,142.5z"/>
			<rect x="342.5" y="187.5" style="fill:#AFB6BB;" width="30" height="50"/>
			<rect x="42.5" y="137.5" style="fill:#AFB6BB;" width="30" height="50"/>
			<rect x="42.5" y="227.5" style="fill:#AFB6BB;" width="30" height="50"/>
			<path style="fill:#FFD248;" d="M107.5,297.5c0,22.1,17.9,40,40,40s40-17.9,40-40s-17.9-40-40-40S107.5,275.4,107.5,297.5z
				 M207.5,407.5h-15c-66,0-120-54-120-120v-10v-50v-40v-50v-10c0-66,54-120,120-120h30c66,0,120,54,120,120v60v50v50
				c0,66-54,120-120,120H207.5z M267.5,337.5c22.1,0,40-17.9,40-40s-17.9-40-40-40s-40,17.9-40,40S245.4,337.5,267.5,337.5z
				 M207.5,227.5c49.7,0,90-40.3,90-90s-40.3-90-90-90s-90,40.3-90,90S157.8,227.5,207.5,227.5z"/>
		</g>
		<g>
			<path d="M207.5,40c-53.762,0-97.5,43.738-97.5,97.5s43.738,97.5,97.5,97.5s97.5-43.738,97.5-97.5S261.262,40,207.5,40z
				 M207.5,220c-42.961,0-78.34-33.013-82.144-75H152.5v-15h-27.144c1.438-15.877,7.388-30.465,16.562-42.474l15.278,15.278
				l10.607-10.607l-15.742-15.742C164.981,64.711,181.634,57.02,200,55.356V82.5h15V55.356c18.366,1.664,35.019,9.355,47.938,21.098
				l-20.742,20.742l10.607,10.607l20.278-20.278c9.174,12.01,15.124,26.598,16.562,42.474H262.5v15h27.144
				C285.84,186.987,250.461,220,207.5,220z"/>
			<path d="M215,136.048V102.5h-15v33.548c-11.528,3.274-20,13.889-20,26.452c0,15.163,12.337,27.5,27.5,27.5s27.5-12.337,27.5-27.5
				C235,149.937,226.528,139.322,215,136.048z M207.5,175c-6.893,0-12.5-5.607-12.5-12.5s5.607-12.5,12.5-12.5s12.5,5.607,12.5,12.5
				S214.393,175,207.5,175z"/>
			<path d="M147.5,250c-26.191,0-47.5,21.309-47.5,47.5s21.309,47.5,47.5,47.5s47.5-21.309,47.5-47.5S173.691,250,147.5,250z
				 M147.5,330c-15.339,0-28.221-10.685-31.617-25H152.5v-15h-36.617c3.396-14.315,16.278-25,31.617-25
				c17.921,0,32.5,14.579,32.5,32.5S165.421,330,147.5,330z"/>
			<path d="M267.5,250c-26.191,0-47.5,21.309-47.5,47.5s21.309,47.5,47.5,47.5s47.5-21.309,47.5-47.5S293.691,250,267.5,250z
				 M267.5,330c-17.921,0-32.5-14.579-32.5-32.5s14.579-32.5,32.5-32.5c15.339,0,28.221,10.685,31.617,25H257.5v15h41.617
				C295.721,319.315,282.839,330,267.5,330z"/>
			<path d="M380,180h-30v-52.5C350,57.196,292.804,0,222.5,0h-30C122.196,0,65,57.196,65,127.5v2.5H35v65h30v25H35v65h30v2.5
				C65,357.804,122.196,415,192.5,415h30c70.304,0,127.5-57.196,127.5-127.5V245h30V180z M50,180v-35h15v35H50z M50,270v-35h15v35
				H50z M335,287.5c0,62.033-50.467,112.5-112.5,112.5H215v-42.5h-15V400h-7.5C130.467,400,80,349.533,80,287.5v-160
				C80,65.467,130.467,15,192.5,15h30C284.533,15,335,65.467,335,127.5V287.5z M365,230h-15v-35h15V230z"/>
		</g>
	</g>
</g>
<g>
</g>
<g>
</g>
<g>
</g>
<g>
</g>
<g>
</g>
<g>
</g>
<g>
</g>
<g>
</g>
<g>
</g>
<g>
</g>
<g>
</g>
<g>
</g>
<g>
</g>
<g>
</g>
<g>
</g>
</svg>
