<?xml version="1.0" encoding="iso-8859-1"?>
<!-- Generator: Adobe Illustrator 19.1.0, SVG Export Plug-In . SVG Version: 6.00 Build 0)  -->
<svg version="1.1" id="Capa_1" xmlns="http://www.w3.org/2000/svg" xmlns:xlink="http://www.w3.org/1999/xlink" x="0px" y="0px"
	 viewBox="0 0 299.082 299.082" style="enable-background:new 0 0 299.082 299.082;" xml:space="preserve">
<g>
	<polygon style="fill:#FFC3AA;" points="140.833,126.539 140.833,80.824 115.649,104.365 	"/>
	<path style="fill:#FFC3AA;" d="M115.834,174.908c0-4.418,3.915-8,8.333-8h49c4.418,0,7.667,3.582,7.667,8v73h83v-99h-231v99h83
		V174.908z M247.833,223.908c0,4.418-3.582,8-8,8h-33c-4.418,0-8-3.582-8-8v-49c0-4.418,3.582-8,8-8h33c4.418,0,8,3.582,8,8V223.908
		z M98.834,223.908c0,4.418-3.582,8-8,8h-33c-4.418,0-8-3.582-8-8v-49c0-4.418,3.582-8,8-8h33c4.418,0,8,3.582,8,8V223.908z"/>
	<polygon style="fill:#FFC3AA;" points="104.238,115.343 85.447,132.908 124.187,132.908 	"/>
	<polygon style="fill:#FFC3AA;" points="156.833,79.016 156.833,126.581 182.363,102.88 	"/>
	<polygon style="fill:#FFC3AA;" points="194.414,113.833 173.868,132.908 214.819,132.908 	"/>
	<path style="fill:#A05200;" d="M29.478,132.908h24.688h7.85l82.654-77.262c3.074-2.873,7.852-2.873,10.926,0l82.653,77.262h5.917
		h26.622L150.133,20.124L29.478,132.908z"/>
	<rect x="131.833" y="182.908" style="fill:#FF754A;" width="33" height="65"/>
	<rect x="65.834" y="182.908" style="fill:#C8F1DE;" width="17" height="33"/>
	<path d="M98.834,174.908c0-4.418-3.582-8-8-8h-33c-4.418,0-8,3.582-8,8v49c0,4.418,3.582,8,8,8h33c4.418,0,8-3.582,8-8V174.908z
		 M82.834,215.908h-17v-33h17V215.908z"/>
	<rect x="214.833" y="182.908" style="fill:#C8F1DE;" width="17" height="33"/>
	<path d="M247.833,174.908c0-4.418-3.582-8-8-8h-33c-4.418,0-8,3.582-8,8v49c0,4.418,3.582,8,8,8h33c4.418,0,8-3.582,8-8V174.908z
		 M214.833,182.908h17v33h-17V182.908z"/>
	<path style="fill:#A9BD34;" d="M272.167,263.908h-247c-4.963,0-9,4.037-9,9c0,4.963,4.037,9,9,9h247c4.963,0,9-4.037,9-9
		C281.167,267.945,277.129,263.908,272.167,263.908z"/>
	<path d="M279.833,249.228v-100.32h11.228c0.008-0.001,0.013-0.001,0.02,0c4.419,0,8-3.582,8-8c0-2.476-1.124-4.688-2.89-6.156
		L155.596,3.329c-3.074-2.873-7.852-2.873-10.926,0L3.742,135.063c-2.399,2.243-3.185,5.726-1.978,8.781
		c1.205,3.056,4.156,5.063,7.441,5.063h7.629v100.32C6.833,252.573,0,261.92,0,272.908c0,13.785,11.381,25,25.167,25h247
		c13.785,0,24.833-11.215,24.833-25C297,261.92,289.833,252.573,279.833,249.228z M272.167,281.908h-247c-4.963,0-9-4.037-9-9
		c0-4.963,4.037-9,9-9h247c4.963,0,9,4.037,9,9C281.167,277.871,277.129,281.908,272.167,281.908z M32.833,148.908h231v99h-83v-73
		c0-4.418-3.249-8-7.667-8h-49c-4.418,0-8.333,3.582-8.333,8v73h-83V148.908z M140.833,126.539l-25.185-22.175l25.185-23.541
		V126.539z M156.833,79.016l25.529,23.864l-25.529,23.7V79.016z M104.238,115.343l19.949,17.564h-38.74L104.238,115.343z
		 M194.414,113.833l20.405,19.074h-40.951L194.414,113.833z M270.789,132.908h-26.622h-5.917l-82.653-77.262
		c-3.074-2.873-7.852-2.873-10.926,0l-82.654,77.262h-7.85H29.478L150.133,20.124L270.789,132.908z M131.833,247.908v-65h33v65
		H131.833z"/>
</g>
<g>
</g>
<g>
</g>
<g>
</g>
<g>
</g>
<g>
</g>
<g>
</g>
<g>
</g>
<g>
</g>
<g>
</g>
<g>
</g>
<g>
</g>
<g>
</g>
<g>
</g>
<g>
</g>
<g>
</g>
</svg>
