<?xml version="1.0" encoding="iso-8859-1"?>
<!-- Generator: Adobe Illustrator 19.0.0, SVG Export Plug-In . SVG Version: 6.00 Build 0)  -->
<svg version="1.1" id="Layer_1" xmlns="http://www.w3.org/2000/svg" xmlns:xlink="http://www.w3.org/1999/xlink" x="0px" y="0px"
	 viewBox="0 0 512 512" style="enable-background:new 0 0 512 512;" xml:space="preserve">
<circle style="fill:#FFF173;" cx="256" cy="256" r="245.801"/>
<path style="fill:#248A9C;" d="M256,512c-68.38,0-132.667-26.628-181.02-74.981C26.628,388.667,0,324.381,0,256
	S26.628,123.333,74.98,74.981C123.333,26.628,187.62,0,256,0s132.667,26.628,181.02,74.981C485.372,123.333,512,187.619,512,256
	s-26.628,132.667-74.98,181.019C388.667,485.372,324.38,512,256,512z M256,20.398C126.089,20.398,20.398,126.089,20.398,256
	S126.089,491.602,256,491.602S491.602,385.911,491.602,256S385.911,20.398,256,20.398z"/>
<polygon style="fill:#8AE9FF;" points="252.304,256 162.845,434.178 259.696,434.178 349.155,256 259.696,77.822 162.845,77.822 "/>
<g>
	<path style="fill:#248A9C;" d="M259.697,444.377h-96.852c-3.538,0-6.822-1.834-8.681-4.845c-1.858-3.011-2.021-6.769-0.434-9.931
		L240.891,256L153.73,82.398c-1.587-3.163-1.423-6.92,0.434-9.931c1.857-3.011,5.142-4.845,8.681-4.845h96.852
		c3.857,0,7.384,2.177,9.115,5.623l89.458,178.178c1.445,2.879,1.445,6.274,0,9.154l-89.458,178.178
		C267.081,442.201,263.554,444.377,259.697,444.377z M179.378,423.979h74.027L337.743,256L253.405,88.021h-74.027l82.04,163.402
		c1.445,2.879,1.445,6.274,0,9.154L179.378,423.979z"/>
	<path style="fill:#248A9C;" d="M309.029,469.555c-4.533,0-8.669-3.043-9.864-7.635c-1.418-5.451,1.852-11.02,7.304-12.437
		c51.309-13.345,96.031-47.438,122.698-93.537c2.821-4.876,9.062-6.541,13.936-3.722c4.876,2.821,6.542,9.06,3.722,13.936
		c-29.382,50.791-78.667,88.356-135.221,103.064C310.742,469.447,309.878,469.555,309.029,469.555z"/>
	<path style="fill:#248A9C;" d="M452.843,339.822c-1.188,0-2.395-0.209-3.573-0.65c-5.276-1.975-7.952-7.851-5.978-13.127
		c0.979-2.617,1.914-5.288,2.779-7.936c1.748-5.355,7.507-8.274,12.86-6.531c5.355,1.748,8.279,7.506,6.531,12.861
		c-0.954,2.921-1.985,5.868-3.066,8.755C460.863,337.292,456.974,339.822,452.843,339.822z"/>
</g>
<g>
</g>
<g>
</g>
<g>
</g>
<g>
</g>
<g>
</g>
<g>
</g>
<g>
</g>
<g>
</g>
<g>
</g>
<g>
</g>
<g>
</g>
<g>
</g>
<g>
</g>
<g>
</g>
<g>
</g>
</svg>
