<svg width="31.251px" height="31.251px" viewBox="-0.54 0 31.251 31.251" xmlns="http://www.w3.org/2000/svg">
  <g id="phone" transform="translate(-1201.175 -255.404)">
    <path id="Path_41" data-name="Path 41" d="M1208.194,256.541c.291.03.565.049.836.089a1.122,1.122,0,0,1,1.005.727c.288.839.569,1.681.832,2.528.37,1.188.685,2.395,1.094,3.569a1.874,1.874,0,0,1-.459,2.007c-.562.623-1.174,1.2-1.78,1.783a1.129,1.129,0,0,0-.292,1.475,19.935,19.935,0,0,0,6.762,8.144c.775.524,1.591.991,2.412,1.443a1.052,1.052,0,0,0,1.48-.245q1.223-1.211,2.435-2.431a1.133,1.133,0,0,1,1.646-.254c1.875,1.112,3.728,2.264,5.6,3.387a1,1,0,0,1,.523,1.186,20.241,20.241,0,0,1-.793,2.633,4.161,4.161,0,0,1-2.05,1.919,7.508,7.508,0,0,1-6.616.659c-1.53-.607-3.023-1.312-4.512-2.018a23.42,23.42,0,0,1-8.416-7.078,36.6,36.6,0,0,1-4.738-7.922,9.865,9.865,0,0,1-.523-7.235,7.911,7.911,0,0,1,3.227-4.125A2.809,2.809,0,0,1,1208.194,256.541Z" fill="#ffc2c2" stroke="#333" stroke-linecap="round" stroke-linejoin="round" stroke-width="2"/>
  </g>
</svg>
