<?xml version="1.0" encoding="iso-8859-1"?>
<!-- Generator: Adobe Illustrator 19.0.0, SVG Export Plug-In . SVG Version: 6.00 Build 0)  -->
<svg version="1.1" id="Layer_1" xmlns="http://www.w3.org/2000/svg" xmlns:xlink="http://www.w3.org/1999/xlink" x="0px" y="0px"
	 viewBox="0 0 512 512" style="enable-background:new 0 0 512 512;" xml:space="preserve">
<circle style="fill:#FFF173;" cx="256" cy="256" r="245.801"/>
<path style="fill:#248A9C;" d="M256,512c-68.38,0-132.667-26.628-181.02-74.981C26.628,388.667,0,324.381,0,256
	S26.628,123.333,74.98,74.981C123.333,26.628,187.62,0,256,0s132.667,26.628,181.02,74.981C485.372,123.333,512,187.619,512,256
	s-26.628,132.667-74.98,181.019C388.667,485.372,324.38,512,256,512z M256,20.398C126.089,20.398,20.398,126.089,20.398,256
	S126.089,491.602,256,491.602S491.602,385.911,491.602,256S385.911,20.398,256,20.398z"/>
<polygon style="fill:#8AE9FF;" points="259.696,256 349.155,77.822 252.304,77.822 162.845,256 252.304,434.178 349.155,434.178 "/>
<g>
	<path style="fill:#248A9C;" d="M349.155,444.377h-96.852c-3.857,0-7.384-2.177-9.115-5.623l-89.458-178.178
		c-1.445-2.879-1.445-6.274,0-9.154l89.458-178.178c1.731-3.446,5.258-5.623,9.115-5.623h96.852c3.538,0,6.822,1.834,8.681,4.845
		c1.858,3.011,2.021,6.769,0.434,9.931L271.109,256l87.161,173.602c1.587,3.163,1.423,6.92-0.434,9.931
		C355.979,442.543,352.694,444.377,349.155,444.377z M258.595,423.979h74.027l-82.04-163.402c-1.445-2.879-1.445-6.274,0-9.154
		l82.04-163.402h-74.027L174.257,256L258.595,423.979z"/>
	<path style="fill:#248A9C;" d="M73.995,161.149c-1.734,0-3.489-0.443-5.098-1.373c-4.876-2.821-6.542-9.06-3.722-13.935
		C94.557,95.05,143.843,57.485,200.397,42.776c5.45-1.423,11.02,1.851,12.438,7.304c1.418,5.451-1.852,11.02-7.304,12.437
		c-51.309,13.345-96.031,47.438-122.698,93.537C80.943,159.323,77.516,161.149,73.995,161.149z"/>
	<path style="fill:#248A9C;" d="M56.235,200.928c-1.049,0-2.115-0.163-3.167-0.506c-5.355-1.748-8.279-7.506-6.531-12.861
		c0.954-2.921,1.985-5.868,3.066-8.755c1.975-5.275,7.852-7.949,13.126-5.978c5.276,1.975,7.952,7.851,5.978,13.127
		c-0.979,2.617-1.914,5.288-2.779,7.936C64.524,198.194,60.529,200.928,56.235,200.928z"/>
</g>
<g>
</g>
<g>
</g>
<g>
</g>
<g>
</g>
<g>
</g>
<g>
</g>
<g>
</g>
<g>
</g>
<g>
</g>
<g>
</g>
<g>
</g>
<g>
</g>
<g>
</g>
<g>
</g>
<g>
</g>
</svg>
