<?xml version="1.0" encoding="iso-8859-1"?>
<!-- Generator: Adobe Illustrator 19.0.0, SVG Export Plug-In . SVG Version: 6.00 Build 0)  -->
<svg version="1.1" id="Layer_1" xmlns="http://www.w3.org/2000/svg" xmlns:xlink="http://www.w3.org/1999/xlink" x="0px" y="0px"
	 viewBox="0 0 511.999 511.999" style="enable-background:new 0 0 511.999 511.999;" xml:space="preserve">
<polygon style="fill:#7F9058;" points="227.974,211.84 316.745,344.513 273.171,344.513 151.523,190.184 227.778,211.971 "/>
<polygon style="fill:#95AC66;" points="214.444,225.304 273.171,344.513 273.171,495.204 8.171,344.51 8.171,311.829 75.083,211.84 
	75.268,211.971 151.523,190.184 "/>
<polygon style="fill:#B3EFFF;" points="227.974,211.84 227.778,211.971 214.444,225.304 151.523,190.215 151.523,97.588 "/>
<polygon style="fill:#FFFFFF;" points="151.523,97.588 214.444,225.304 189.65,250.098 151.523,211.971 113.395,250.098 
	75.268,211.971 75.083,211.84 "/>
<polygon style="fill:#59473C;" points="436.922,211.833 503.828,311.828 503.828,344.51 360.471,420.761 360.471,190.177 
	436.726,211.964 "/>
<polygon style="fill:#875B51;" points="423.392,225.298 482.12,344.506 338.689,420.761 195.259,344.506 284.031,211.833 
	284.216,211.964 360.471,190.177 "/>
<polygon style="fill:#B3EFFF;" points="436.922,211.833 436.726,211.964 423.392,225.298 360.471,190.209 360.471,97.582 "/>
<polygon style="fill:#FFFFFF;" points="360.471,97.582 423.392,225.298 398.599,250.092 360.471,211.964 322.344,250.092 
	284.216,211.964 284.031,211.833 "/>
<polygon style="fill:#CAED73;" points="503.828,377.19 256,464.339 8.171,377.19 8.171,344.51 503.828,344.51 "/>
<polygon style="fill:#55B9D3;" points="503.828,377.19 503.828,507.913 471.148,507.913 427.573,442.552 471.148,377.19 "/>
<rect x="8.171" y="377.189" style="fill:#8CE6FE;" width="462.977" height="130.723"/>
<g>
	<path style="fill:#FFFFFF;" d="M416.68,418.041H8.171c-4.513,0-8.17-3.658-8.17-8.17s3.657-8.17,8.17-8.17H416.68
		c4.513,0,8.17,3.658,8.17,8.17S421.192,418.041,416.68,418.041z"/>
	<path style="fill:#FFFFFF;" d="M503.828,450.722H226.042c-4.513,0-8.17-3.658-8.17-8.17s3.657-8.17,8.17-8.17h277.786
		c4.513,0,8.17,3.658,8.17,8.17S508.341,450.722,503.828,450.722z"/>
	<path style="fill:#FFFFFF;" d="M193.362,450.722H95.32c-4.513,0-8.17-3.658-8.17-8.17s3.657-8.17,8.17-8.17h98.042
		c4.513,0,8.17,3.658,8.17,8.17S197.874,450.722,193.362,450.722z"/>
	<path style="fill:#FFFFFF;" d="M503.828,483.403h-98.042c-4.513,0-8.17-3.658-8.17-8.17s3.657-8.17,8.17-8.17h98.042
		c4.513,0,8.17,3.658,8.17,8.17S508.341,483.403,503.828,483.403z"/>
</g>
<path style="fill:#FFA850;" d="M256,12.256v98.042c27.071,0,49.021-21.951,49.021-49.021S283.07,12.256,256,12.256z"/>
<path style="fill:#FECB69;" d="M256,12.256c12.037,0,21.787,21.951,21.787,49.021s-9.75,49.021-21.787,49.021
	c-27.071,0-49.021-21.951-49.021-49.021S228.929,12.256,256,12.256z"/>
<path d="M503.828,336.339H8.171c-4.513,0-8.17,3.658-8.17,8.17s3.657,8.17,8.17,8.17h495.657c4.513,0,8.17-3.658,8.17-8.17
	S508.341,336.339,503.828,336.339z"/>
<path d="M503.828,369.02H8.171c-4.513,0-8.17,3.658-8.17,8.17s3.657,8.17,8.17,8.17h495.657c4.513,0,8.17-3.658,8.17-8.17
	S508.341,369.02,503.828,369.02z"/>
<path d="M407.561,229.581l-8.959,8.959l-32.35-32.35c-3.192-3.191-8.364-3.191-11.555,0l-32.35,32.351l-8.962-8.961
	c-3.189-3.191-8.362-3.192-11.554,0c-3.191,3.191-3.191,8.364,0.001,11.554l14.738,14.738c1.595,1.596,3.686,2.393,5.777,2.393
	s4.182-0.797,5.778-2.393l32.35-32.351l32.35,32.351c1.533,1.533,3.61,2.393,5.778,2.393s4.244-0.861,5.778-2.393l14.736-14.737
	c3.191-3.191,3.191-8.364-0.001-11.554C415.926,226.391,410.753,226.392,407.561,229.581z"/>
<path d="M210.165,229.585c-3.192-3.191-8.364-3.191-11.555,0l-8.96,8.96l-32.35-32.351c-3.192-3.191-8.364-3.191-11.555,0
	l-32.35,32.35l-8.96-8.96c-3.191-3.191-8.364-3.192-11.554,0c-3.192,3.191-3.192,8.363-0.001,11.554l14.737,14.738
	c1.533,1.533,3.61,2.393,5.778,2.393c2.168,0,4.244-0.861,5.778-2.393l32.35-32.351l32.35,32.351c3.192,3.191,8.364,3.191,11.555,0
	l14.737-14.737C213.355,237.949,213.355,232.775,210.165,229.585z"/>
<path d="M3.627,318.619C5.023,319.552,6.601,320,8.163,320c2.635,0,5.222-1.272,6.798-3.628L151.522,112.28l94.644,141.446
	l-35.835,53.555c-2.51,3.75-1.503,8.825,2.247,11.334c3.751,2.509,8.825,1.503,11.334-2.247l38.836-58.039
	c0.045-0.065,0.089-0.13,0.131-0.196l97.595-145.857l136.563,204.095c1.575,2.355,4.162,3.628,6.798,3.628
	c1.562,0,3.141-0.448,4.536-1.381c3.75-2.51,4.756-7.583,2.247-11.334L367.266,93.042c-1.517-2.267-4.063-3.626-6.79-3.626
	s-5.275,1.361-6.79,3.626l-97.687,145.993l-97.686-145.99c-1.517-2.266-4.063-3.626-6.79-3.626c-2.727,0-5.275,1.361-6.79,3.626
	L1.381,307.285C-1.129,311.036-0.122,316.11,3.627,318.619z"/>
<path d="M256,118.468c31.535,0,57.191-25.655,57.191-57.191S287.534,4.085,256,4.085s-57.191,25.655-57.191,57.191
	S224.465,118.468,256,118.468z M256,20.426c22.526,0,40.851,18.325,40.851,40.851S278.525,102.128,256,102.128
	s-40.851-18.325-40.851-40.851S233.474,20.426,256,20.426z"/>
<g>
</g>
<g>
</g>
<g>
</g>
<g>
</g>
<g>
</g>
<g>
</g>
<g>
</g>
<g>
</g>
<g>
</g>
<g>
</g>
<g>
</g>
<g>
</g>
<g>
</g>
<g>
</g>
<g>
</g>
</svg>
