<?xml version="1.0" encoding="iso-8859-1"?>
<!-- Generator: Adobe Illustrator 19.0.0, SVG Export Plug-In . SVG Version: 6.00 Build 0)  -->
<svg version="1.1" id="Layer_1" xmlns="http://www.w3.org/2000/svg" xmlns:xlink="http://www.w3.org/1999/xlink" x="0px" y="0px"
	 viewBox="0 0 512 512" style="enable-background:new 0 0 512 512;" xml:space="preserve">
<g transform="translate(1 1)">
	<polygon style="fill:#1CD759;" points="410.307,109.933 417.133,69.827 306.2,51.907 295.96,109.933 	"/>
	<polygon style="fill:#54C9FD;" points="340.333,7.533 168.813,22.04 173.933,68.973 228.547,58.733 237.933,109.933 
		295.96,109.933 306.2,51.907 345.453,57.88 	"/>
	<polygon style="fill:#FD9808;" points="237.933,109.933 228.547,58.733 84.333,86.893 88.6,109.933 	"/>
	<path style="fill:#FCC309;" d="M408.6,178.2H101.4c-9.387,0-17.067-7.68-17.067-17.067V127c0-9.387,7.68-17.067,17.067-17.067
		h307.2c9.387,0,17.067,7.68,17.067,17.067v34.133C425.667,170.52,417.987,178.2,408.6,178.2"/>
	<path style="fill:#FFFFFF;" d="M84.333,161.133V127c0-9.387,7.68-17.067,17.067-17.067H75.8c-9.387,0-17.067,7.68-17.067,17.067
		v34.133c0,9.387,7.68,17.067,17.067,17.067h25.6C92.013,178.2,84.333,170.52,84.333,161.133"/>
	<path style="fill:#FD9808;" d="M434.2,109.933h-25.6c9.387,0,17.067,7.68,17.067,17.067v34.133c0,9.387-7.68,17.067-17.067,17.067
		h25.6c9.387,0,17.067-7.68,17.067-17.067V127C451.267,117.613,443.587,109.933,434.2,109.933"/>
	<path style="fill:#FFDD09;" d="M107.373,178.2l31.573,308.907c0.853,8.533,6.827,15.36,14.507,15.36H357.4
		c7.68,0,13.653-6.827,14.507-15.36l30.72-308.907H107.373z"/>
	<path style="fill:#FCC309;" d="M135.533,502.467h238.933c8.533,0,16.213-6.827,17.067-15.36L395.8,434.2H114.2l4.267,52.907
		C119.32,495.64,127,502.467,135.533,502.467"/>
	<path style="fill:#FFFFFF;" d="M138.093,487.107L106.52,178.2h-25.6l36.693,308.907c0.853,8.533,8.533,15.36,17.067,15.36h17.92
		C144.92,502.467,138.947,495.64,138.093,487.107"/>
	<path style="fill:#FD9808;" d="M400.067,178.2l-31.573,308.907c-0.853,8.533-6.827,15.36-14.507,15.36h17.92
		c8.533,0,16.213-6.827,17.067-15.36L425.667,178.2H400.067z"/>
	<path d="M434.2,186.733H75.8c-14.507,0-25.6-11.093-25.6-25.6V127c0-14.507,11.093-25.6,25.6-25.6h358.4
		c14.507,0,25.6,11.093,25.6,25.6v34.133C459.8,175.64,448.707,186.733,434.2,186.733z M75.8,118.467
		c-5.12,0-8.533,3.413-8.533,8.533v34.133c0,5.12,3.413,8.533,8.533,8.533h358.4c5.12,0,8.533-3.413,8.533-8.533V127
		c0-5.12-3.413-8.533-8.533-8.533H75.8z"/>
	<path d="M374.467,511H135.533c-13.653,0-24.747-10.24-25.6-23.893L73.24,179.053c0-2.56,0.853-5.12,1.707-6.827
		c0.853-1.707,4.267-2.56,6.827-2.56H429.08c2.56,0,5.12,0.853,5.973,2.56s2.56,4.267,1.707,6.827L400.067,487.96
		C399.213,500.76,387.267,511,374.467,511z M91.16,186.733L127,485.4c0,5.12,4.267,8.533,8.533,8.533h238.933
		c4.267,0,8.533-3.413,8.533-7.68l35.84-299.52H91.16z"/>
	<path d="M237.933,118.467H88.6c-4.267,0-7.68-2.56-8.533-6.827L75.8,87.747c-0.853-4.267,2.56-8.533,6.827-9.387L226.84,50.2
		c2.56,0,5.12,0,6.827,1.707c1.707,1.707,3.413,3.413,3.413,5.12l9.387,51.2c0.853,2.56,0,5.12-1.707,6.827
		C243.053,117.613,240.493,118.467,237.933,118.467z M95.427,101.4H226.84l-5.973-32.427L94.573,92.867L95.427,101.4z"/>
	<path d="M410.307,118.467H295.96c-2.56,0-5.12-0.853-6.827-3.413c-1.707-1.707-2.56-4.267-1.707-6.827l10.24-58.027
		c0.853-4.267,5.12-7.68,9.387-6.827l110.933,17.92c2.56,0,4.267,1.707,5.973,3.413c1.707,1.707,1.707,4.267,1.707,5.973
		l-6.827,40.107C417.987,115.907,413.72,118.467,410.307,118.467z M306.2,101.4h96.427l4.267-24.747l-93.867-15.36L306.2,101.4z"/>
	<path d="M295.96,118.467h-58.027c-4.267,0-7.68-2.56-8.533-6.827l-7.68-42.667l-46.08,8.533c-2.56,0.853-5.12,0-6.827-1.707
		s-3.413-3.413-3.413-5.973l-5.12-46.933c0-2.56,0.853-4.267,1.707-5.973c1.707-1.707,3.413-2.56,5.973-3.413L339.48-1
		c4.267,0,8.533,3.413,9.387,7.68l5.12,50.347c0,2.56-0.853,5.12-2.56,6.827c-1.707,1.707-4.267,2.56-6.827,2.56l-31.573-5.12
		l-8.533,50.347C303.64,115.907,300.227,118.467,295.96,118.467z M244.76,101.4h44.373l8.533-51.2
		c0.853-4.267,5.12-7.68,9.387-6.827l28.16,4.267L331.8,16.92l-153.6,12.8l3.413,29.013L226.84,50.2c2.56,0,5.12,0,6.827,1.707
		c1.707,1.707,3.413,3.413,3.413,5.12L244.76,101.4z"/>
	<path d="M374.467,511H135.533c-12.8,0-24.747-10.24-25.6-23.893l-4.267-52.907c0-2.56,0.853-5.12,2.56-6.827
		c0.853-0.853,3.413-1.707,5.973-1.707h282.453c2.56,0,4.267,0.853,5.973,2.56s2.56,4.267,2.56,6.827l-5.12,52.907
		C399.213,500.76,387.267,511,374.467,511z M123.587,442.733l3.413,43.52c0,4.267,4.267,7.68,8.533,7.68h238.933
		c4.267,0,8.533-3.413,8.533-7.68l3.413-43.52H123.587z"/>
	<path d="M255,391.533c-5.12,0-8.533-3.413-8.533-8.533V229.4c0-5.12,3.413-8.533,8.533-8.533s8.533,3.413,8.533,8.533V383
		C263.533,388.12,260.12,391.533,255,391.533z"/>
	<path d="M176.493,391.533c-4.267,0-7.68-3.413-8.533-7.68l-13.653-152.747c0-5.12,3.413-8.533,7.68-9.387
		c5.12-0.853,8.533,3.413,9.387,7.68l13.653,152.747C185.027,386.413,181.613,390.68,176.493,391.533L176.493,391.533z"/>
	<path d="M333.507,391.533L333.507,391.533c-5.12-0.853-8.533-4.267-8.533-9.387L338.627,229.4c0-5.12,4.267-8.533,9.387-7.68
		c5.12,0,8.533,4.267,7.68,9.387L342.04,383.853C342.04,388.12,337.773,391.533,333.507,391.533z"/>
</g>
<g>
</g>
<g>
</g>
<g>
</g>
<g>
</g>
<g>
</g>
<g>
</g>
<g>
</g>
<g>
</g>
<g>
</g>
<g>
</g>
<g>
</g>
<g>
</g>
<g>
</g>
<g>
</g>
<g>
</g>
</svg>
